<svg width="283" height="284" viewBox="0 0 283 284" fill="none" xmlns="http://www.w3.org/2000/svg">
<g opacity="0.2" clip-path="url(#clip0_2234_8803)">
<path d="M141.097 0C62.5443 0 -1 63.5443 -1 142.097C-1 220.456 62.5443 284.195 141.097 284.195C219.456 284.195 283.195 220.651 283.195 142.097C283 63.5443 219.456 0 141.097 0ZM141.097 275.034C67.6122 275.034 8.16129 215.583 8.16129 142.097C8.16129 68.6122 67.6122 9.16129 141.097 9.16129C214.583 9.16129 274.034 68.6122 274.034 142.097C274.034 215.388 214.388 275.034 141.097 275.034Z" fill="white"/>
<path d="M141.099 30.6025C79.6986 30.6025 29.7988 80.5023 29.7988 141.902C29.7988 203.303 79.6986 253.202 141.099 253.202C202.499 253.202 252.399 203.498 252.399 142.097C252.399 80.5023 202.499 30.6025 141.099 30.6025ZM141.099 236.244C89.0548 236.244 46.757 193.946 46.757 141.902C46.757 89.8585 89.0548 47.5607 141.099 47.5607C193.143 47.5607 235.441 89.8585 235.441 141.902C235.441 193.946 193.143 236.244 141.099 236.244Z" fill="white"/>
<path d="M141.098 79.5273C106.597 79.5273 78.5283 107.596 78.5283 142.097C78.5283 176.598 106.402 204.667 141.098 204.667C175.599 204.667 203.668 176.598 203.668 142.097C203.473 107.596 175.599 79.5273 141.098 79.5273ZM141.098 175.623C122.58 175.623 107.572 160.614 107.572 142.097C107.572 123.579 122.58 108.571 141.098 108.571C159.616 108.571 174.624 123.579 174.624 142.097C174.624 160.614 159.616 175.623 141.098 175.623Z" fill="white"/>
</g>
<defs>
<clipPath id="clip0_2234_8803">
<rect width="284" height="284" fill="white" transform="translate(-1)"/>
</clipPath>
</defs>
</svg>
