<svg width="579" height="513" viewBox="0 0 579 513" fill="none" xmlns="http://www.w3.org/2000/svg">
<path fill-rule="evenodd" clip-rule="evenodd" d="M88.4336 468.667H354.042V469.9H88.4336V468.667Z" fill="#3FB1B5"/>
<path fill-rule="evenodd" clip-rule="evenodd" d="M335.443 481H43.083V480.046H335.443V481Z" fill="#66B0F0"/>
<path d="M334.153 4.9209V52.7702C334.153 62.1411 326.508 69.7535 317.097 69.7535H263.816C273.227 69.7535 280.872 62.1643 280.872 52.7702V4.9209H334.153Z" fill="white"/>
<path fill-rule="evenodd" clip-rule="evenodd" d="M280.291 4.34277H334.733V52.7706C334.733 62.4609 326.829 70.3323 317.097 70.3323H263.816V69.1754C272.907 69.1754 280.291 61.8446 280.291 52.7706V4.34277ZM270.126 69.1754H317.097C326.187 69.1754 333.572 61.822 333.572 52.7706V5.49967H281.453V52.7706C281.453 60.2659 276.746 66.6501 270.126 69.1754Z" fill="#66B0F0"/>
<path d="M309.545 0.293945H305.246V10.4978H309.545V0.293945Z" fill="#FFCF2D"/>
<path d="M318.654 23.1086C318.05 23.1086 317.446 22.8773 316.958 22.4376L315.169 20.8643C314.611 20.3784 313.867 20.3784 313.31 20.8643L311.614 22.3682C310.614 23.2475 309.22 23.2475 308.198 22.3682L306.641 21.0031C306.083 20.5172 305.34 20.5172 304.782 21.0031L303.341 22.2757C302.342 23.1549 300.948 23.1549 299.926 22.2757L298.741 21.2345C298.183 20.7486 297.439 20.7486 296.882 21.2345L295.604 22.3682C294.605 23.2475 293.21 23.2475 292.188 22.3682L291.003 21.327C290.445 20.8411 289.702 20.8411 289.144 21.327C288.912 21.5353 288.54 21.5121 288.331 21.2807C288.122 21.0494 288.145 20.6791 288.377 20.4709C289.376 19.5917 290.771 19.5917 291.793 20.4709L292.978 21.5121C293.536 21.998 294.279 21.998 294.837 21.5121L296.115 20.3784C297.114 19.4991 298.508 19.4991 299.531 20.3784L300.716 21.4196C301.273 21.9055 302.017 21.9055 302.575 21.4196L304.015 20.147C305.014 19.2677 306.409 19.2677 307.431 20.147L308.988 21.5121C309.546 21.998 310.289 21.998 310.847 21.5121L312.543 20.0081C313.542 19.1289 314.936 19.1289 315.959 20.0081L317.748 21.5815C318.306 22.0674 319.049 22.0674 319.607 21.5815L321.466 19.9387C322.465 19.0595 323.859 19.0595 324.881 19.9387C325.114 20.147 325.137 20.5172 324.928 20.7486C324.719 20.9799 324.347 21.0031 324.115 20.7948C323.557 20.3089 322.813 20.3089 322.256 20.7948L320.397 22.4376C319.839 22.8773 319.258 23.1086 318.654 23.1086Z" fill="#66B0F0"/>
<path d="M318.654 32.6174C318.05 32.6174 317.446 32.386 316.958 31.9464L315.169 30.373C314.611 29.8871 313.867 29.8871 313.31 30.373L311.614 31.877C310.614 32.7562 309.22 32.7562 308.198 31.877L306.641 30.5119C306.083 30.026 305.34 30.026 304.782 30.5119L303.341 31.7844C302.342 32.6637 300.948 32.6637 299.926 31.7844L298.741 30.7432C298.183 30.2573 297.439 30.2573 296.882 30.7432L295.604 31.877C294.605 32.7562 293.21 32.7562 292.188 31.877L291.003 30.8358C290.445 30.3499 289.702 30.3499 289.144 30.8358C288.912 31.044 288.54 31.0209 288.331 30.7895C288.122 30.5581 288.145 30.1879 288.377 29.9797C289.376 29.1004 290.771 29.1004 291.793 29.9797L292.978 31.0209C293.536 31.5068 294.279 31.5068 294.837 31.0209L296.115 29.8871C297.114 29.0079 298.508 29.0079 299.531 29.8871L300.716 30.9283C301.273 31.4142 302.017 31.4142 302.575 30.9283L304.015 29.6558C305.014 28.7765 306.409 28.7765 307.431 29.6558L308.988 31.0209C309.546 31.5068 310.289 31.5068 310.847 31.0209L312.543 29.5169C313.542 28.6377 314.936 28.6377 315.959 29.5169L317.748 31.0903C318.306 31.5762 319.049 31.5762 319.607 31.0903L321.466 29.4475C322.465 28.5683 323.859 28.5683 324.881 29.4475C325.114 29.6558 325.137 30.026 324.928 30.2573C324.719 30.4887 324.347 30.5119 324.115 30.3036C323.557 29.8177 322.813 29.8177 322.256 30.3036L320.397 31.9464C319.839 32.4091 319.258 32.6174 318.654 32.6174Z" fill="#66B0F0"/>
<path d="M318.654 42.1272C318.05 42.1272 317.446 41.8958 316.958 41.4562L315.169 39.8828C314.611 39.3969 313.867 39.3969 313.31 39.8828L311.614 41.3868C310.614 42.266 309.22 42.266 308.198 41.3868L306.641 40.0216C306.083 39.5357 305.34 39.5357 304.782 40.0216L303.341 41.2942C302.342 42.1734 300.948 42.1734 299.926 41.2942L298.741 40.253C298.183 39.7671 297.439 39.7671 296.882 40.253L295.604 41.3868C294.605 42.266 293.21 42.266 292.188 41.3868L291.003 40.3456C290.445 39.8597 289.702 39.8597 289.144 40.3456C288.912 40.5538 288.54 40.5307 288.331 40.2993C288.122 40.0679 288.145 39.6977 288.377 39.4895C289.376 38.6102 290.771 38.6102 291.793 39.4895L292.978 40.5307C293.536 41.0166 294.279 41.0166 294.837 40.5307L296.115 39.3969C297.114 38.5177 298.508 38.5177 299.531 39.3969L300.716 40.4381C301.273 40.924 302.017 40.924 302.575 40.4381L304.015 39.1655C305.014 38.2863 306.409 38.2863 307.431 39.1655L308.988 40.5307C309.546 41.0166 310.289 41.0166 310.847 40.5307L312.543 39.0267C313.542 38.1475 314.936 38.1475 315.959 39.0267L317.748 40.6001C318.306 41.086 319.049 41.086 319.607 40.6001L321.466 38.9573C322.465 38.078 323.859 38.078 324.881 38.9573C325.114 39.1655 325.137 39.5357 324.928 39.7671C324.719 39.9985 324.347 40.0216 324.115 39.8134C323.557 39.3275 322.813 39.3275 322.256 39.8134L320.397 41.4562C319.839 41.9189 319.258 42.1272 318.654 42.1272Z" fill="#66B0F0"/>
<path d="M318.654 51.6594C318.05 51.6594 317.446 51.428 316.958 50.9884L315.169 49.415C314.611 48.9291 313.867 48.9291 313.31 49.415L311.614 50.919C310.614 51.7982 309.22 51.7982 308.198 50.919L306.641 49.5539C306.083 49.068 305.34 49.068 304.782 49.5539L303.341 50.8264C302.342 51.7057 300.948 51.7057 299.926 50.8264L298.741 49.7852C298.183 49.2993 297.439 49.2993 296.882 49.7852L295.604 50.919C294.605 51.7982 293.21 51.7982 292.188 50.919L291.003 49.8778C290.445 49.3919 289.702 49.3919 289.144 49.8778C288.912 50.086 288.54 50.0629 288.331 49.8315C288.122 49.6001 288.145 49.2299 288.377 49.0217C289.376 48.1425 290.771 48.1425 291.793 49.0217L292.978 50.0629C293.536 50.5488 294.279 50.5488 294.837 50.0629L296.115 48.9291C297.114 48.0499 298.508 48.0499 299.531 48.9291L300.716 49.9703C301.273 50.4562 302.017 50.4562 302.575 49.9703L304.015 48.6978C305.014 47.8185 306.409 47.8185 307.431 48.6978L308.988 50.0629C309.546 50.5488 310.289 50.5488 310.847 50.0629L312.543 48.5589C313.542 47.6797 314.936 47.6797 315.959 48.5589L317.748 50.1323C318.306 50.6182 319.049 50.6182 319.607 50.1323L321.466 48.4895C322.465 47.6103 323.859 47.6103 324.881 48.4895C325.114 48.6978 325.137 49.068 324.928 49.2993C324.719 49.5307 324.347 49.5539 324.115 49.3456C323.557 48.8597 322.813 48.8597 322.256 49.3456L320.397 50.9884C319.839 51.428 319.258 51.6594 318.654 51.6594Z" fill="#66B0F0"/>
<path d="M389.011 4.91992H351.74V42.0333H389.011V4.91992Z" fill="#FFCF2D"/>
<path d="M359.931 3.33727L357.232 0.00488281L347.391 7.94256L350.09 11.2749L359.931 3.33727Z" fill="#FE5244"/>
<path d="M390.945 11.2562L393.647 7.92676L383.798 -2.5395e-05L381.095 3.32937L390.945 11.2562Z" fill="#FE5244"/>
<path d="M381.135 13.7139H358.526V15.1022H381.135V13.7139Z" fill="white"/>
<path d="M381.135 19.7061H358.526V21.0943H381.135V19.7061Z" fill="white"/>
<path d="M381.135 25.7217H358.526V27.1099H381.135V25.7217Z" fill="white"/>
<path d="M381.135 31.7148H358.526V33.1031H381.135V31.7148Z" fill="white"/>
<path d="M417.457 404.178C416.917 404.019 416.618 403.939 416.618 403.939L410.085 425.243L385.494 418.818C385.295 418.639 385.195 418.54 385.195 418.54C385.195 418.54 285.612 340.822 280.378 303.524C275.164 266.227 316.875 230.839 316.875 230.839C316.875 230.839 405.83 398.27 416.837 403.74C417.057 403.86 417.277 403.999 417.457 404.178Z" fill="#E57281"/>
<path d="M337.931 270.006C334.814 286.616 323.867 320.253 312.541 352.797C295.76 334.794 282.216 316.633 280.378 303.504C277.062 279.872 292.624 256.977 304.45 243.41C308.785 239.949 313.459 236.766 318.513 233.922C321.61 239.71 328.781 253.118 337.931 270.006Z" fill="#9A3B82"/>
<path d="M473.352 418.52L436.775 441.893L426.167 440.302L416.399 446.468L419.555 452.913L403.474 463.197C382.159 443.882 385.175 418.759 385.175 418.759L410.066 425.263L416.598 403.959C416.598 403.959 438.952 410.464 455.453 409.907C471.993 409.35 473.352 418.52 473.352 418.52Z" fill="white"/>
<path fill-rule="evenodd" clip-rule="evenodd" d="M416.198 403.222L416.766 403.387L416.598 403.96C416.766 403.387 416.766 403.387 416.766 403.387L416.781 403.391L416.829 403.405C416.871 403.417 416.934 403.435 417.017 403.459C417.183 403.506 417.43 403.575 417.75 403.663C418.39 403.839 419.324 404.09 420.497 404.389C422.843 404.989 426.143 405.782 429.957 406.558C437.595 408.112 447.253 409.587 455.432 409.311C463.817 409.029 468.46 411.212 471.012 413.568C472.282 414.741 473.013 415.938 473.427 416.851C473.633 417.307 473.761 417.693 473.838 417.969C473.876 418.107 473.902 418.217 473.919 418.297C473.927 418.336 473.933 418.368 473.937 418.391C473.939 418.402 473.941 418.412 473.942 418.419L473.943 418.428L473.944 418.431L473.944 418.433C473.944 418.433 473.944 418.434 473.351 418.521L473.944 418.434L474 418.815L436.908 442.517L426.299 440.926L417.172 446.687L420.327 453.129L403.41 463.948L403.07 463.64C392.3 453.881 387.676 442.65 385.745 433.863C384.781 429.471 384.488 425.687 384.437 422.998C384.412 421.653 384.447 420.582 384.488 419.843C384.509 419.474 384.532 419.188 384.549 418.993C384.558 418.896 384.565 418.821 384.571 418.77C384.573 418.744 384.576 418.725 384.577 418.711L384.579 418.695L384.579 418.691L384.58 418.689C384.58 418.689 384.58 418.689 385.175 418.759L384.58 418.689L384.661 418.008L409.661 424.541L416.198 403.222ZM385.71 419.516C385.702 419.633 385.693 419.765 385.685 419.91C385.645 420.621 385.611 421.663 385.636 422.976C385.685 425.601 385.971 429.305 386.916 433.608C388.786 442.119 393.234 452.964 403.538 462.448L418.782 452.699L415.624 446.251L426.035 439.679L436.64 441.27L472.671 418.246C472.608 418.025 472.503 417.713 472.334 417.342C471.977 416.553 471.334 415.493 470.197 414.443C467.934 412.353 463.628 410.229 455.472 410.504C447.15 410.785 437.381 409.286 429.717 407.727C425.88 406.947 422.56 406.149 420.2 405.546C419.019 405.244 418.078 404.991 417.431 404.814C417.268 404.769 417.124 404.729 416.999 404.694L410.471 425.987L385.71 419.516Z" fill="#FE5244"/>
<path fill-rule="evenodd" clip-rule="evenodd" d="M432.3 406.022C432.25 405.579 432.175 404.954 432.074 404.21C431.868 402.699 431.553 400.689 431.115 398.706C430.679 396.735 430.113 394.747 429.393 393.304C429.034 392.586 428.614 391.953 428.112 391.531C427.591 391.093 426.949 390.861 426.234 391.049L426.232 391.05L426.231 391.05C425.516 391.242 425.053 391.779 424.779 392.426C424.508 393.063 424.393 393.858 424.382 394.713C424.359 396.429 424.755 398.556 425.402 400.568C426.048 402.579 426.965 404.536 428.027 405.893C428.556 406.57 429.15 407.133 429.797 407.462C430.462 407.801 431.196 407.894 431.928 407.595C433.165 407.09 434.329 405.933 435.36 404.588C436.405 403.225 437.371 401.592 438.192 400.032C439.014 398.468 439.698 396.963 440.176 395.85C440.416 395.293 440.604 394.833 440.732 394.512C440.797 394.351 440.846 394.225 440.88 394.139C440.896 394.096 440.909 394.063 440.918 394.04L440.928 394.014L440.931 394.005L440.931 394.005C440.931 394.005 440.931 394.005 440.37 393.795C439.809 393.584 439.809 393.584 439.809 393.584L439.809 393.585L439.809 393.586L439.807 393.592L439.798 393.615C439.79 393.636 439.778 393.667 439.762 393.709C439.73 393.791 439.682 393.914 439.619 394.07C439.494 394.384 439.309 394.834 439.074 395.381C438.604 396.475 437.934 397.95 437.13 399.478C436.325 401.008 435.395 402.576 434.408 403.864C433.698 404.79 432.986 405.533 432.3 406.022ZM431.155 406.574C430.9 406.603 430.633 406.547 430.342 406.399C429.91 406.18 429.445 405.764 428.972 405.159C428.029 403.953 427.165 402.14 426.543 400.204C425.922 398.271 425.56 396.276 425.58 394.728C425.59 393.951 425.696 393.328 425.882 392.891C426.064 392.463 426.293 392.27 426.541 392.203C426.789 392.138 427.038 392.19 427.339 392.443C427.659 392.712 427.991 393.178 428.319 393.835C428.972 395.143 429.513 397.014 429.944 398.963C430.373 400.902 430.683 402.877 430.886 404.37C430.988 405.116 431.062 405.74 431.111 406.177C431.129 406.334 431.143 406.468 431.155 406.574Z" fill="#FE5244"/>
<path fill-rule="evenodd" clip-rule="evenodd" d="M472.15 415.843L437.34 437.485L425.787 435.634L413.662 442.85L388.98 442.47L388.999 441.276L413.34 441.652L425.547 434.387L437.086 436.236L471.515 414.831L472.15 415.843Z" fill="#FE5244"/>
<path fill-rule="evenodd" clip-rule="evenodd" d="M423.843 416.327L426.12 405.765L427.292 406.015L425.015 416.578L423.843 416.327Z" fill="#FE5244"/>
<path fill-rule="evenodd" clip-rule="evenodd" d="M428.797 417.521L431.074 406.958L432.246 407.209L429.969 417.771L428.797 417.521Z" fill="#FE5244"/>
<path fill-rule="evenodd" clip-rule="evenodd" d="M433.972 418.376L436.249 407.813L437.421 408.064L435.144 418.627L433.972 418.376Z" fill="#FE5244"/>
<path d="M308.426 222.704C308.426 222.704 323.069 229.507 323.069 254.452C323.069 278.561 267.175 426.199 267.175 426.199L249.975 440.721L232.516 421.684C241.046 413.608 216.554 267.6 308.426 222.704Z" fill="#E57281"/>
<path d="M306.868 469.007L263.4 469.047L255.329 462.005L243.763 461.945L242.924 469.067L225.884 469.087C216.614 440.363 232.596 421.664 232.596 421.664L249.935 440.681L267.255 426.18C267.255 426.18 282.277 443.724 296.461 452.119C310.684 460.533 306.868 469.007 306.868 469.007Z" fill="white"/>
<path fill-rule="evenodd" clip-rule="evenodd" d="M232.581 420.761L249.991 439.855L267.325 425.342L267.711 425.793L267.255 426.18C267.711 425.793 267.711 425.793 267.711 425.793L267.721 425.805L267.753 425.842C267.781 425.875 267.824 425.924 267.88 425.988C267.992 426.118 268.16 426.309 268.378 426.556C268.814 427.05 269.454 427.765 270.266 428.65C271.891 430.42 274.204 432.868 276.96 435.577C282.478 441.003 289.738 447.447 296.767 451.606C303.977 455.872 306.705 460.209 307.578 463.569C308.013 465.241 307.98 466.645 307.835 467.638C307.762 468.134 307.662 468.528 307.577 468.802C307.535 468.939 307.496 469.047 307.468 469.122C307.46 469.142 307.453 469.159 307.447 469.174C307.442 469.189 307.436 469.201 307.432 469.211C307.428 469.222 307.424 469.231 307.421 469.238L307.417 469.246L307.415 469.25C307.415 469.251 307.415 469.252 306.868 469.007L307.415 469.252L307.256 469.604L263.174 469.644L255.102 462.601L244.295 462.545L243.456 469.663L225.447 469.684L225.313 469.269C220.633 454.767 222.325 442.778 225.196 434.411C226.631 430.231 228.36 426.956 229.732 424.723C230.418 423.607 231.016 422.75 231.444 422.171C231.658 421.881 231.83 421.66 231.949 421.51C232.008 421.436 232.055 421.379 232.087 421.34C232.103 421.32 232.116 421.305 232.124 421.295L232.135 421.283L232.137 421.279L232.138 421.278C232.139 421.278 232.139 421.278 232.595 421.664L232.139 421.278L232.581 420.761ZM232.627 422.587C232.561 422.674 232.489 422.77 232.41 422.877C232 423.433 231.421 424.261 230.754 425.346C229.42 427.517 227.732 430.713 226.331 434.797C223.556 442.881 221.897 454.455 226.322 468.49L242.39 468.471L243.229 461.346L255.555 461.41L263.624 468.45L306.444 468.411C306.51 468.19 306.59 467.87 306.649 467.466C306.775 466.607 306.807 465.366 306.418 463.868C305.643 460.887 303.167 456.781 296.154 452.632C288.999 448.397 281.656 441.871 276.118 436.426C273.345 433.7 271.016 431.237 269.381 429.455C268.563 428.564 267.919 427.843 267.478 427.344C267.369 427.221 267.272 427.111 267.188 427.015L249.879 441.508L232.627 422.587Z" fill="#FE5244"/>
<path fill-rule="evenodd" clip-rule="evenodd" d="M287.27 420.056C288.16 419.934 289.018 420.153 289.762 420.796C290.5 421.434 290.84 422.23 290.837 423.104C290.835 423.949 290.515 424.825 290.031 425.679C289.065 427.385 287.326 429.202 285.486 430.844C283.635 432.495 281.636 434.01 280.103 435.11C279.395 435.618 278.785 436.039 278.332 436.345C278.531 436.364 278.773 436.373 279.061 436.368C279.781 436.357 280.688 436.265 281.725 436.111C283.797 435.802 286.325 435.255 288.785 434.658C291.242 434.062 293.617 433.421 295.38 432.928C296.261 432.682 296.988 432.473 297.494 432.326C297.747 432.252 297.946 432.194 298.08 432.154C298.147 432.134 298.199 432.119 298.233 432.108L298.285 432.093C298.285 432.093 298.285 432.093 298.458 432.664C298.63 433.236 298.63 433.236 298.63 433.236L298.577 433.252C298.557 433.258 298.532 433.265 298.502 433.274C298.478 433.281 298.451 433.289 298.421 433.298C298.285 433.338 298.085 433.397 297.83 433.471C297.32 433.62 296.589 433.83 295.704 434.077C293.933 434.572 291.543 435.218 289.068 435.818C286.596 436.417 284.027 436.975 281.902 437.291C280.841 437.449 279.875 437.549 279.08 437.562C278.32 437.573 277.598 437.51 277.114 437.246C276.455 436.885 276.333 436.103 276.356 435.447C276.381 434.736 276.584 433.859 276.9 432.913C277.537 431.01 278.685 428.683 280.065 426.543C281.44 424.411 283.08 422.412 284.722 421.209C285.544 420.607 286.407 420.174 287.27 420.056ZM277.557 435.427C278.009 435.122 278.65 434.682 279.402 434.142C280.917 433.055 282.879 431.568 284.686 429.955C286.504 428.332 288.121 426.622 288.987 425.092C289.421 424.328 289.637 423.659 289.639 423.101C289.64 422.573 289.451 422.108 288.976 421.697C288.505 421.29 287.997 421.161 287.433 421.238C286.844 421.319 286.168 421.631 285.433 422.17C283.961 423.248 282.415 425.108 281.073 427.188C279.736 429.261 278.637 431.499 278.038 433.29C277.748 434.156 277.586 434.886 277.557 435.427Z" fill="#FE5244"/>
<path fill-rule="evenodd" clip-rule="evenodd" d="M223.266 444.189L223.905 443.18L244.155 455.898H258.363L267.332 463.397H307.207V464.591H266.896L257.926 457.092H243.808L223.266 444.189Z" fill="#FE5244"/>
<path fill-rule="evenodd" clip-rule="evenodd" d="M265.273 439.483L272.944 431.845L273.792 432.689L266.121 440.327L265.273 439.483Z" fill="#FE5244"/>
<path fill-rule="evenodd" clip-rule="evenodd" d="M268.788 443.163L276.459 435.524L277.307 436.368L269.636 444.007L268.788 443.163Z" fill="#FE5244"/>
<path fill-rule="evenodd" clip-rule="evenodd" d="M272.665 446.664L280.336 439.025L281.184 439.869L273.513 447.508L272.665 446.664Z" fill="#FE5244"/>
<path d="M308.425 222.703C273.886 239.572 255.787 270.762 246.218 303.524H141.402C114.573 303.524 94.5766 278.878 100.23 252.76L107.921 217.193H290.167C296.919 217.193 303.191 219.222 308.425 222.703Z" fill="#FE5244"/>
<path d="M230.596 256.798L268.331 256.719L262.738 265.849L230.596 256.798Z" fill="#E57281"/>
<path fill-rule="evenodd" clip-rule="evenodd" d="M147.676 216.609C148 216.677 148.208 216.993 148.14 217.315L146.682 224.277C146.682 224.277 146.682 224.277 146.682 224.277C143.244 240.716 155.825 256.142 172.684 256.142H268.005C278.061 242.273 291.185 230.361 308.36 221.969C308.657 221.824 309.016 221.946 309.162 222.242C309.308 222.538 309.185 222.895 308.888 223.04C291.806 231.387 278.775 243.254 268.798 257.087L268.619 257.336H172.684C155.064 257.336 141.915 241.213 145.509 224.034L146.967 217.072C147.035 216.749 147.352 216.542 147.676 216.609Z" fill="white"/>
<path fill-rule="evenodd" clip-rule="evenodd" d="M230.021 256.614C230.113 256.297 230.445 256.114 230.763 256.205L263.252 265.489L262.856 266.154C255.875 277.857 250.739 290.639 246.934 303.671C246.842 303.988 246.51 304.17 246.192 304.078C245.874 303.986 245.691 303.655 245.784 303.338C249.538 290.478 254.588 277.837 261.431 266.21L230.432 257.352C230.114 257.261 229.93 256.931 230.021 256.614Z" fill="white"/>
<path d="M83.4293 121.653L102.627 196.646H66.8088C45.9533 196.646 32.529 174.586 42.1977 156.186L69.7054 103.81C77.4962 88.9908 92.8981 79.7012 109.698 79.7012H116.191C94.1367 79.6813 77.9757 100.369 83.4293 121.653Z" fill="#3FB1B5"/>
<path d="M304.489 102.198C315.776 102.198 325.165 100.706 327.442 98.6176L292.424 174.207C286.091 187.893 272.327 196.645 257.205 196.645C252.77 196.645 248.415 195.89 244.3 194.437C240.185 192.985 236.31 190.857 232.854 188.072L210.78 170.328C210.78 170.328 208.582 183.198 192.901 186.481V217.154H107.9L83.4292 121.633C77.9757 100.348 94.1367 79.6406 116.191 79.6406H175.701C180.955 79.6406 186.129 80.2971 191.123 81.5701C204.787 85.0314 217.052 93.028 225.722 104.486L254.808 142.917L280.937 97.444C280.937 97.4838 280.917 97.5434 280.917 97.5832C280.937 100.229 291.505 102.198 304.489 102.198Z" fill="#3FB1B5"/>
<path fill-rule="evenodd" clip-rule="evenodd" d="M83.0853 121.073C83.4065 120.994 83.7315 121.189 83.811 121.509L102.609 197.099C102.689 197.419 102.493 197.742 102.171 197.821C101.85 197.901 101.525 197.706 101.446 197.386L82.6476 121.796C82.568 121.476 82.764 121.153 83.0853 121.073Z" fill="white"/>
<path fill-rule="evenodd" clip-rule="evenodd" d="M193.869 153.204C194.11 152.978 194.489 152.99 194.716 153.23L211.416 170.934C211.643 171.174 211.631 171.552 211.39 171.778C211.148 172.003 210.769 171.991 210.543 171.751L193.842 154.047C193.616 153.807 193.627 153.429 193.869 153.204Z" fill="white"/>
<path d="M327.963 97.5032L327.444 98.6172C325.166 100.726 315.777 102.198 304.491 102.198C291.506 102.198 280.938 100.228 280.938 97.6226C280.938 97.5828 280.938 97.5231 280.958 97.4833C281.318 94.9371 291.746 92.749 304.511 92.749C317.256 92.749 327.604 94.9371 327.963 97.5032C327.963 97.4833 327.963 97.4833 327.963 97.5032Z" fill="#FE5244"/>
<path d="M338.429 59.3108C338.429 60.4447 338.15 61.5586 337.63 62.5333C337.111 63.5081 336.352 64.3634 335.413 65.0198L334.953 65.3381L331.378 84.335C330.798 87.4182 328.96 90.1434 326.304 91.8343L321.409 94.9374L317.534 97.404L315.736 101.681C312.4 102.019 308.584 102.218 304.509 102.218C300.394 102.218 296.519 102.019 293.143 101.661V72.2009C293.143 70.9278 293.422 69.6746 293.962 68.5208L300.474 54.5566C300.474 54.5566 307.586 56.3071 304.309 65C301.333 72.8971 308.125 70.8681 311.94 69.4557C315.356 68.1827 330.279 60.6237 336.112 57.8587C337.191 57.3415 338.429 58.1372 338.429 59.3108Z" fill="#E57281"/>
<path fill-rule="evenodd" clip-rule="evenodd" d="M332.289 76.6258C332.56 76.6763 332.738 76.9361 332.688 77.206C332.083 80.4249 330.164 83.2485 327.392 85.013L318.622 90.5831C318.389 90.7307 318.08 90.6628 317.932 90.4312C317.784 90.1996 317.852 89.8922 318.084 89.7445L326.854 84.175C329.395 82.5578 331.152 79.9708 331.706 77.0231C331.757 76.7532 332.017 76.5752 332.289 76.6258Z" fill="#9A3B82"/>
<path fill-rule="evenodd" clip-rule="evenodd" d="M333.727 68.5691C333.998 68.6196 334.177 68.8794 334.126 69.1494C333.521 72.3682 331.603 75.1919 328.83 76.9564L320.06 82.5264C319.827 82.6741 319.519 82.6061 319.37 82.3745C319.222 82.143 319.29 81.8355 319.523 81.6878L328.292 76.1183C328.292 76.1183 328.292 76.1182 328.292 76.1181C328.292 76.1181 328.292 76.1181 328.292 76.1181C330.833 74.501 332.59 71.914 333.144 68.9665C333.195 68.6965 333.456 68.5186 333.727 68.5691Z" fill="#9A3B82"/>
<path fill-rule="evenodd" clip-rule="evenodd" d="M334.735 65.2905C334.882 65.5224 334.813 65.8297 334.581 65.9768L320.477 74.8885C320.244 75.0357 319.936 74.967 319.788 74.7351C319.64 74.5032 319.709 74.1959 319.942 74.0487L334.045 65.137C334.278 64.9899 334.587 65.0586 334.735 65.2905Z" fill="#9A3B82"/>
<path d="M322.169 94.4399L321.39 94.9372L317.514 97.4038L315.716 101.681C312.38 102.019 308.565 102.218 304.49 102.218C300.374 102.218 296.499 102.019 293.123 101.661V93.3856C296.499 92.9878 300.374 92.769 304.49 92.769C311.541 92.7491 317.854 93.4055 322.169 94.4399Z" fill="#9A3B82"/>
<path d="M189.266 81.1132C186.37 84.9922 175.583 94.1226 139.265 94.1226C92.5401 94.1226 122.445 79.7208 122.445 79.7208L142.262 46.7598L163.517 59.7492V70.1925C163.517 75.4639 167.812 79.7208 173.085 79.7208H174.464C179.418 79.7009 184.532 79.9197 189.266 81.1132Z" fill="#E57281"/>
<path d="M163.498 59.7287V62.3943L122.426 79.7003L142.243 46.7393L163.498 59.7287Z" fill="#9A3B82"/>
<path d="M164.613 61.0209H169.128C173.283 61.0209 176.659 57.6591 176.659 53.5216V28.4775H149.711V46.1814C149.711 54.3769 156.383 61.0209 164.613 61.0209Z" fill="#E57281"/>
<path fill-rule="evenodd" clip-rule="evenodd" d="M172.456 49.8301L172.456 49.8297L172.456 49.829L172.455 49.8283C172.455 49.828 172.455 49.8281 172.455 49.8284C172.455 49.8284 172.455 49.8284 172.455 49.8284M172.455 49.8284C172.455 49.8285 172.455 49.8286 172.456 49.8288C172.456 49.83 172.458 49.8331 172.461 49.8378C172.467 49.8471 172.477 49.8631 172.492 49.8848C172.522 49.9282 172.57 49.9941 172.637 50.0751C172.771 50.2373 172.979 50.4581 173.27 50.6799C173.846 51.12 174.756 51.5719 176.08 51.5719C176.356 51.5719 176.579 51.7946 176.579 52.0692C176.579 52.3439 176.356 52.5665 176.08 52.5665C174.507 52.5665 173.389 52.0238 172.662 51.4694C172.301 51.1939 172.039 50.9173 171.865 50.7065C171.778 50.601 171.713 50.5115 171.668 50.4461C171.645 50.4134 171.628 50.3867 171.615 50.3669C171.609 50.357 171.604 50.3489 171.6 50.3426L171.596 50.3346L171.594 50.3317L171.593 50.3305L171.593 50.33C171.593 50.3297 171.592 50.3295 172.025 50.08" fill="#73325A"/>
<path d="M173.462 44.0534C173.991 44.0534 174.421 43.2251 174.421 42.2034C174.421 41.1818 173.991 40.3535 173.462 40.3535C172.932 40.3535 172.503 41.1818 172.503 42.2034C172.503 43.2251 172.932 44.0534 173.462 44.0534Z" fill="#73325A"/>
<path d="M154.846 31.0839C154.846 31.0839 177.08 44.4513 184.312 32.8145C190.664 22.6099 162.517 17.3584 152.689 17.3186C142.001 17.2788 127.838 21.9932 128.078 37.6482C128.277 50.5383 128.817 69.3959 121.146 66.1137C93.8579 54.457 69.6065 66.6309 69.5265 89.825C69.4466 113.019 96.4749 115.187 97.1541 109.2C97.8532 103.232 80.3738 104.605 82.731 120.101C85.0683 135.597 95.496 154.971 119.308 154.971C148.074 154.991 166.393 117.276 148.594 113.437C134.95 110.493 162.497 136.71 170.668 109.458C179.457 80.1177 147.695 70.5099 146.916 52.7861C146.136 35.0623 154.846 31.0839 154.846 31.0839Z" fill="#FFCF2D"/>
<path fill-rule="evenodd" clip-rule="evenodd" d="M136.014 21.1809C140.968 17.981 147.287 16.8014 152.691 16.8215C157.659 16.8416 167.208 18.1732 174.733 20.7854C178.486 22.0883 181.807 23.7331 183.79 25.7458C184.787 26.7586 185.471 27.8902 185.673 29.1417C185.877 30.4012 185.582 31.719 184.737 33.0764C182.832 36.141 179.935 37.5497 176.719 37.9471C173.521 38.3423 169.988 37.7428 166.727 36.7904C163.459 35.8362 160.427 34.5163 158.214 33.4376C157.107 32.8977 156.203 32.4171 155.574 32.0709C155.26 31.8978 155.015 31.7582 154.848 31.6616C154.843 31.6591 154.839 31.6567 154.835 31.6544C154.804 31.6722 154.77 31.6922 154.734 31.7145C154.515 31.8471 154.196 32.0589 153.813 32.3688C153.046 32.9883 152.018 34.0009 151.009 35.5584C148.993 38.6685 147.029 43.9885 147.415 52.7646C147.603 57.045 149.662 60.8695 152.589 64.691C154.051 66.6 155.719 68.4952 157.464 70.4389C157.761 70.7698 158.06 71.1021 158.36 71.4361C159.822 73.0598 161.319 74.7227 162.764 76.4476C166.249 80.6082 169.466 85.1707 171.249 90.5623C173.036 95.9657 173.372 102.172 171.147 109.601C169.076 116.507 165.743 120.129 162.041 121.624C160.085 122.414 158.059 122.595 156.115 122.379C156.198 126.426 154.644 131.242 151.842 135.907C145.829 145.917 133.915 155.479 119.308 155.469C107.248 155.469 98.5528 150.555 92.5888 143.672C86.6369 136.803 83.4164 127.991 82.2375 120.175C81.6652 116.412 82.2303 113.421 83.4518 111.138C83.2586 111.068 83.0653 110.994 82.8722 110.918C75.8857 108.164 68.9867 101.662 69.0275 89.8235C69.0681 78.0323 75.2645 69.0179 84.9193 64.4513C94.5588 59.8921 107.596 59.7847 121.343 65.6569L121.343 65.657C122.223 66.0332 122.927 66.0696 123.504 65.8878C124.084 65.7047 124.609 65.2772 125.08 64.5848C126.036 63.1793 126.671 60.8273 127.069 57.8795C127.814 52.359 127.697 45.0495 127.597 38.8233C127.591 38.4297 127.585 38.0404 127.579 37.6561C127.456 29.6475 131.032 24.3991 136.014 21.1809ZM84.41 111.465C83.2522 113.549 82.6677 116.362 83.2252 120.026L83.2253 120.027C84.3836 127.707 87.5456 136.33 93.345 143.022C99.1321 149.701 107.557 154.474 119.308 154.474H119.309C133.468 154.484 145.097 145.198 150.985 135.396C153.771 130.757 155.237 126.058 155.111 122.232C153.751 121.984 152.445 121.554 151.246 121.017C149.653 120.303 148.234 119.394 147.107 118.451C145.987 117.514 145.127 116.519 144.689 115.624C144.47 115.176 144.338 114.716 144.366 114.28C144.395 113.822 144.602 113.417 145 113.134C145.377 112.866 145.885 112.736 146.482 112.71C147.085 112.684 147.822 112.762 148.7 112.951C151.02 113.452 152.786 114.514 154.013 116.01C155.21 117.471 155.867 119.312 156.058 121.371C157.915 121.601 159.833 121.442 161.666 120.702C165 119.356 168.175 116.036 170.189 109.316C172.359 102.075 172.021 96.0775 170.3 90.8734C168.575 85.6577 165.451 81.2091 161.997 77.0847C160.564 75.3745 159.081 73.7272 157.62 72.1036C157.318 71.7687 157.018 71.4348 156.719 71.1016C154.974 69.157 153.283 67.2367 151.795 65.2941C148.822 61.4124 146.618 57.3895 146.417 52.8081C146.024 43.8603 148.025 38.3292 150.169 35.0192C151.24 33.3666 152.341 32.2769 153.183 31.5965C153.604 31.2565 153.96 31.0191 154.214 30.8649C154.342 30.7877 154.444 30.7314 154.516 30.6934C154.552 30.6744 154.58 30.66 154.601 30.6499C154.611 30.6449 154.62 30.6409 154.626 30.6379L154.634 30.6342L154.638 30.6325C154.638 30.6323 154.638 30.6321 154.847 31.0841L154.638 30.6321L154.879 30.5224L155.105 30.6584L155.098 30.6695C155.105 30.6584 155.105 30.6584 155.105 30.6584L155.105 30.6587L155.108 30.6603L155.119 30.667C155.129 30.673 155.145 30.6821 155.165 30.6942C155.206 30.7184 155.268 30.7545 155.349 30.8012C155.511 30.8947 155.75 31.031 156.058 31.2006C156.674 31.54 157.563 32.0128 158.653 32.5443C160.836 33.6083 163.813 34.903 167.008 35.836C170.209 36.7709 173.591 37.3314 176.596 36.9601C179.582 36.591 182.176 35.3068 183.887 32.553L183.888 32.5527C184.631 31.3591 184.846 30.2806 184.687 29.2996C184.527 28.3106 183.978 27.3575 183.076 26.4422C181.261 24.5989 178.122 23.0151 174.404 21.7246C166.987 19.1499 157.548 17.8358 152.687 17.8161M155.037 121.205C154.831 119.408 154.237 117.857 153.239 116.639C152.173 115.339 150.617 114.382 148.488 113.923C147.661 113.745 147.014 113.682 146.525 113.703C146.031 113.725 145.74 113.83 145.58 113.943C145.441 114.042 145.374 114.166 145.363 114.344C145.35 114.544 145.41 114.826 145.587 115.188C145.94 115.91 146.686 116.8 147.749 117.689C148.806 118.573 150.147 119.434 151.656 120.11C152.72 120.587 153.86 120.969 155.037 121.205ZM84.41 111.465C87.3735 112.407 90.275 112.699 92.5923 112.455C93.9487 112.312 95.1357 111.983 96.0213 111.467C96.9095 110.95 97.542 110.211 97.6506 109.257C97.7528 108.383 97.5205 107.618 97.028 107.008C96.5433 106.408 95.8316 105.987 95.0134 105.732C93.3815 105.224 91.2183 105.339 89.1412 106.138C87.2092 106.881 85.3197 108.228 83.9708 110.267C83.7273 110.181 83.4836 110.089 83.2398 109.993C76.5624 107.361 69.9872 101.183 70.0263 89.8269C70.0656 78.4241 76.035 69.7545 85.3478 65.3497C94.676 60.9377 107.408 60.7865 120.949 66.5709C121.988 67.0152 122.944 67.1075 123.805 66.836C124.663 66.5656 125.353 65.9577 125.907 65.1423C127.002 63.5323 127.658 60.9797 128.059 58.0121C128.815 52.4139 128.696 45.0336 128.596 38.8316C128.59 38.4295 128.584 38.0322 128.577 37.6409C128.46 29.9944 131.847 25.0582 136.558 22.0153C141.297 18.9542 147.404 17.7965 152.687 17.8161M84.9559 110.593C86.1665 108.868 87.8125 107.715 89.5011 107.066C91.4119 106.33 93.3401 106.253 94.7152 106.681C95.4006 106.895 95.9213 107.225 96.2496 107.631C96.5697 108.028 96.7307 108.525 96.6584 109.142L96.6582 109.144C96.5967 109.686 96.2361 110.19 95.5168 110.609C94.7946 111.03 93.7592 111.332 92.4874 111.466C90.3829 111.687 87.7151 111.437 84.9559 110.593Z" fill="white"/>
<path fill-rule="evenodd" clip-rule="evenodd" d="M169.19 42.3234H153.289V41.1299H169.19V42.3234Z" fill="#3FB1B5"/>
<path fill-rule="evenodd" clip-rule="evenodd" d="M174.085 37.1515C172.053 37.1515 170.169 39.32 170.169 42.3235C170.169 45.3269 172.053 47.4954 174.085 47.4954C176.117 47.4954 178 45.3269 178 42.3235C178 39.32 176.117 37.1515 174.085 37.1515ZM168.971 42.3235C168.971 38.955 171.13 35.958 174.085 35.958C177.04 35.958 179.199 38.955 179.199 42.3235C179.199 45.6919 177.04 48.6889 174.085 48.6889C171.13 48.6889 168.971 45.6919 168.971 42.3235Z" fill="#3FB1B5"/>
<path fill-rule="evenodd" clip-rule="evenodd" d="M149.433 13.9172C147.228 13.9172 145.457 15.6972 145.457 17.8757V34.6247H144.259V17.8757C144.259 15.0414 146.563 12.7236 149.433 12.7236H154.427C157.273 12.7236 159.601 15.0181 159.601 17.8757H158.402C158.402 15.6807 156.615 13.9172 154.427 13.9172H149.433Z" fill="#66B0F0"/>
<path d="M149.673 53.0649H140.064C137.607 53.0649 135.609 51.0757 135.609 48.629V39.0609C135.609 36.6142 137.607 34.625 140.064 34.625H149.673C152.13 34.625 154.128 36.6142 154.128 39.0609V48.629C154.108 51.0757 152.13 53.0649 149.673 53.0649Z" fill="white"/>
<path fill-rule="evenodd" clip-rule="evenodd" d="M140.064 35.2218C137.938 35.2218 136.208 36.9439 136.208 39.061V48.629C136.208 50.7462 137.938 52.4682 140.064 52.4682H149.673C151.793 52.4682 153.509 50.7508 153.528 48.6265V39.061C153.528 36.9439 151.799 35.2218 149.673 35.2218H140.064ZM135.01 39.061C135.01 36.2847 137.276 34.0283 140.064 34.0283H149.673C152.461 34.0283 154.727 36.2847 154.727 39.061V48.6315L154.727 48.6339C154.704 51.402 152.465 53.6617 149.673 53.6617H140.064C137.276 53.6617 135.01 51.4053 135.01 48.629V39.061Z" fill="#66B0F0"/>
<path d="M147.176 49.9022H142.481C140.464 49.9022 138.806 48.271 138.806 46.242V41.5674C138.806 39.5583 140.444 37.9072 142.481 37.9072H147.176C149.193 37.9072 150.852 39.5384 150.852 41.5674V46.242C150.852 48.271 149.213 49.9022 147.176 49.9022Z" fill="white"/>
<path fill-rule="evenodd" clip-rule="evenodd" d="M142.482 38.5041C140.778 38.5041 139.406 39.8858 139.406 41.5674V46.2421C139.406 47.9394 140.793 49.3054 142.482 49.3054H147.177C148.883 49.3054 150.253 47.9415 150.253 46.2421V41.5674C150.253 39.8701 148.865 38.5041 147.177 38.5041H142.482ZM138.207 41.5674C138.207 39.2309 140.111 37.3105 142.482 37.3105H147.177C149.523 37.3105 151.452 39.2068 151.452 41.5674V46.2421C151.452 48.6006 149.545 50.499 147.177 50.499H142.482C140.136 50.499 138.207 48.6027 138.207 46.2421V41.5674Z" fill="#66B0F0"/>
<path fill-rule="evenodd" clip-rule="evenodd" d="M140.204 49.0863L148.554 38.0264L149.512 38.7436L141.162 49.8035L140.204 49.0863Z" fill="#66B0F0"/>
<path fill-rule="evenodd" clip-rule="evenodd" d="M138.567 47.1946L145.799 37.6465L146.756 38.3651L139.524 47.9132L138.567 47.1946Z" fill="#66B0F0"/>
<path fill-rule="evenodd" clip-rule="evenodd" d="M142.94 49.5423L150.172 39.9941L151.129 40.7128L143.897 50.261L142.94 49.5423Z" fill="#66B0F0"/>
<path fill-rule="evenodd" clip-rule="evenodd" d="M145.839 49.5432L150.374 43.5557L151.331 44.2743L146.796 50.2618L145.839 49.5432Z" fill="#66B0F0"/>
<path fill-rule="evenodd" clip-rule="evenodd" d="M138.348 43.5942L142.862 37.6465L143.818 38.3662L139.304 44.3139L138.348 43.5942Z" fill="#66B0F0"/>
<path fill-rule="evenodd" clip-rule="evenodd" d="M137.147 325.803V314.843H138.346V325.803C138.346 331.424 133.762 335.988 128.118 335.988H103.427V334.794H128.118C133.1 334.794 137.147 330.765 137.147 325.803Z" fill="#66B0F0"/>
<path fill-rule="evenodd" clip-rule="evenodd" d="M146.358 415.517V314.963H147.557V415.517H146.358Z" fill="#66B0F0"/>
<path fill-rule="evenodd" clip-rule="evenodd" d="M141.903 416.113C120.221 416.113 102.849 430.395 102.849 447.762H101.65C101.65 429.521 119.797 414.92 141.903 414.92H151.851C173.957 414.92 192.104 429.521 192.104 447.762H190.905C190.905 430.395 173.534 416.113 151.851 416.113H141.903Z" fill="#66B0F0"/>
<path d="M243.022 316.494H97.9922C90.7208 316.494 84.8477 310.626 84.8477 303.405H246.458L243.022 316.494Z" fill="#FFCF2D"/>
<path d="M101.371 469.085C107.284 469.085 112.078 464.311 112.078 458.423C112.078 452.534 107.284 447.761 101.371 447.761C95.457 447.761 90.6631 452.534 90.6631 458.423C90.6631 464.311 95.457 469.085 101.371 469.085Z" fill="#FFCF2D"/>
<path d="M95.9155 338.117H117.41C119.168 338.117 120.587 336.705 120.587 334.954V334.715C120.587 332.965 119.168 331.553 117.41 331.553H95.9155C94.1576 331.553 92.7393 332.965 92.7393 334.715V334.954C92.7393 336.705 94.1576 338.117 95.9155 338.117Z" fill="#FFCF2D"/>
<path fill-rule="evenodd" clip-rule="evenodd" d="M51.044 211.286C48.3883 203.857 53.9108 196.048 61.8366 196.048H137.488C144.853 196.048 151.411 200.663 153.893 207.563L153.894 207.564L188.599 304.4H84.4272L51.044 211.286ZM52.1731 210.886C49.7952 204.232 54.7404 197.241 61.8366 197.241H137.488C144.345 197.241 150.453 201.538 152.765 207.966L186.898 303.206H85.272L52.1732 210.886C52.1732 210.886 52.1731 210.886 52.1731 210.886Z" fill="#FFCF2D"/>
<path fill-rule="evenodd" clip-rule="evenodd" d="M54.2461 199.608H130.836C137.962 199.608 144.3 204.064 146.702 210.746L146.703 210.746L180.249 304.4H89.9441V303.206H178.549L145.574 211.148C143.342 204.94 137.454 200.802 130.836 200.802H54.2461V199.608Z" fill="#FFCF2D"/>
<path d="M191.325 469.085C197.238 469.085 202.032 464.311 202.032 458.423C202.032 452.534 197.238 447.761 191.325 447.761C185.411 447.761 180.617 452.534 180.617 458.423C180.617 464.311 185.411 469.085 191.325 469.085Z" fill="#FFCF2D"/>
</svg>
