<svg width="216" height="197" viewBox="0 0 216 197" fill="none" xmlns="http://www.w3.org/2000/svg">
<g opacity="0.8" clip-path="url(#clip0_2234_9590)">
<path d="M34.0829 135.335C35.2502 136.232 35.4507 137.783 34.5507 138.954C33.6506 140.126 32.1002 140.331 30.9329 139.434C29.7656 138.537 29.5651 136.986 30.4652 135.815C31.3652 134.644 33.0129 134.513 34.0829 135.335Z" fill="#FFCF2D"/>
<path d="M47.5082 117.864C48.6755 118.761 48.876 120.312 47.9759 121.484C47.0759 122.655 45.5255 122.86 44.3582 121.963C43.1909 121.066 42.9904 119.515 43.8905 118.344C44.7155 117.27 46.4382 117.042 47.5082 117.864Z" fill="#FFCF2D"/>
<path d="M60.8583 100.492C62.0256 101.389 62.2261 102.94 61.326 104.112C60.426 105.283 58.8756 105.488 57.7083 104.591C56.541 103.694 56.3405 102.143 57.2406 100.972C58.1406 99.8008 59.7883 99.67 60.8583 100.492Z" fill="#FFCF2D"/>
<path d="M74.2836 83.0225C75.4509 83.9195 75.6514 85.4707 74.7513 86.6418C73.8513 87.813 72.3008 88.0186 71.1336 87.1216C69.9663 86.2245 69.7658 84.6734 70.6659 83.5022C71.5659 82.3311 73.2136 82.2002 74.2836 83.0225Z" fill="#FFCF2D"/>
<path d="M87.7089 65.5528C88.8762 66.4498 89.0766 68.001 88.1766 69.1721C87.2766 70.3433 85.7261 70.5489 84.5589 69.6518C83.3916 68.7548 83.1911 67.2037 84.0911 66.0325C84.9162 64.9589 86.6389 64.7305 87.7089 65.5528Z" fill="#FFCF2D"/>
<path d="M101.134 48.0831C102.301 48.9801 102.502 50.5312 101.602 51.7024C100.702 52.8736 99.1514 53.0792 97.9841 52.1821C96.8169 51.2851 96.6164 49.7339 97.5164 48.5628C98.4165 47.3916 100.064 47.2608 101.134 48.0831Z" fill="#FFCF2D"/>
<path d="M114.484 30.711C115.652 31.608 115.852 33.1592 114.952 34.3303C114.052 35.5015 112.502 35.7071 111.334 34.81C110.167 33.913 109.967 32.3619 110.867 31.1907C111.767 30.0195 113.414 29.8887 114.484 30.711Z" fill="#FFCF2D"/>
<path d="M127.91 13.2413C129.077 14.1383 129.277 15.6894 128.377 16.8606C127.477 18.0318 125.927 18.2374 124.76 17.3403C123.592 16.4433 123.392 14.8921 124.292 13.721C125.192 12.5498 126.84 12.419 127.91 13.2413Z" fill="#FFCF2D"/>
<path d="M141.335 -4.22845C142.502 -3.33142 142.703 -1.78028 141.803 -0.609125C140.903 0.562032 139.352 0.767627 138.185 -0.129408C137.018 -1.02644 136.817 -2.57759 137.717 -3.74875C138.542 -4.82231 140.265 -5.05074 141.335 -4.22845Z" fill="#FFCF2D"/>
<path d="M48.5766 146.473C49.7439 147.37 49.9443 148.921 49.0443 150.092C48.1443 151.263 46.5938 151.469 45.4265 150.572C44.2593 149.675 44.0588 148.124 44.9588 146.952C45.8588 145.781 47.4093 145.576 48.5766 146.473Z" fill="#FFCF2D"/>
<path d="M62.0019 129.003C63.1692 129.9 63.3696 131.451 62.4696 132.622C61.5696 133.793 60.0191 133.999 58.8518 133.102C57.6845 132.205 57.4841 130.654 58.3841 129.483C59.2091 128.409 60.8346 128.106 62.0019 129.003Z" fill="#FFCF2D"/>
<path d="M75.352 111.631C76.5193 112.528 76.7197 114.079 75.8197 115.25C74.9197 116.421 73.3692 116.627 72.2019 115.73C71.0346 114.833 70.8342 113.282 71.7342 112.111C72.6342 110.939 74.1847 110.734 75.352 111.631Z" fill="#FFCF2D"/>
<path d="M88.7773 94.1612C89.9446 95.0582 90.145 96.6094 89.245 97.7805C88.345 98.9517 86.7945 99.1573 85.6272 98.2602C84.4599 97.3632 84.2595 95.8121 85.1595 94.6409C86.0595 93.4697 87.61 93.2641 88.7773 94.1612Z" fill="#FFCF2D"/>
<path d="M102.203 76.6905C103.37 77.5875 103.57 79.1387 102.67 80.3098C101.77 81.481 100.22 81.6866 99.0525 80.7895C97.8852 79.8925 97.6848 78.3414 98.5848 77.1702C99.4098 76.0966 101.035 75.7934 102.203 76.6905Z" fill="#FFCF2D"/>
<path d="M115.628 59.2208C116.795 60.1178 116.996 61.6689 116.096 62.8401C115.196 64.0113 113.645 64.2169 112.478 63.3198C111.311 62.4228 111.11 60.8716 112.01 59.7005C112.91 58.5293 114.461 58.3237 115.628 59.2208Z" fill="#FFCF2D"/>
<path d="M128.978 41.8487C130.145 42.7457 130.346 44.2969 129.446 45.468C128.546 46.6392 126.995 46.8448 125.828 45.9477C124.661 45.0507 124.46 43.4996 125.36 42.3284C126.26 41.1572 127.811 40.9517 128.978 41.8487Z" fill="#FFCF2D"/>
<path d="M142.403 24.3789C143.571 25.276 143.771 26.8271 142.871 27.9983C141.971 29.1695 140.42 29.3751 139.253 28.478C138.086 27.581 137.885 26.0298 138.785 24.8587C139.685 23.6875 141.236 23.4819 142.403 24.3789Z" fill="#FFCF2D"/>
<path d="M155.829 6.90923C156.996 7.80627 157.196 9.35741 156.296 10.5286C155.396 11.6997 153.846 11.9053 152.678 11.0083C151.511 10.1113 151.311 8.5601 152.211 7.38894C153.036 6.31538 154.661 6.0122 155.829 6.90923Z" fill="#FFCF2D"/>
<path d="M5.1928 113.133C6.36008 114.03 6.56053 115.581 5.66052 116.752C4.7605 117.923 3.21003 118.129 2.04275 117.232C0.875462 116.335 0.675012 114.784 1.57503 113.613C2.47504 112.441 4.02552 112.236 5.1928 113.133Z" fill="#FFCF2D"/>
<path d="M18.6181 95.6631C19.7854 96.5602 19.9858 98.1113 19.0858 99.2825C18.1858 100.454 16.6353 100.659 15.468 99.7622C14.3008 98.8652 14.1003 97.314 15.0003 96.1429C15.8253 95.0693 17.4508 94.7661 18.6181 95.6631Z" fill="#FFCF2D"/>
<path d="M31.9682 78.2911C33.1355 79.1881 33.3359 80.7392 32.4359 81.9104C31.5359 83.0816 29.9854 83.2872 28.8181 82.3901C27.6509 81.4931 27.5254 79.8443 28.3504 78.7708C29.2504 77.5996 30.8009 77.394 31.9682 78.2911Z" fill="#FFCF2D"/>
<path d="M45.3935 60.8213C46.5608 61.7184 46.7612 63.2695 45.8612 64.4407C44.9612 65.6118 43.4107 65.8174 42.2434 64.9204C41.0761 64.0234 40.9507 62.3746 41.7757 61.3011C42.6007 60.2275 44.2262 59.9243 45.3935 60.8213Z" fill="#FFCF2D"/>
<path d="M58.8188 43.3516C59.9861 44.2486 60.1865 45.7998 59.2865 46.971C58.3865 48.1421 56.836 48.3477 55.6687 47.4507C54.5014 46.5536 54.301 45.0025 55.201 43.8313C56.026 42.7578 57.6515 42.4546 58.8188 43.3516Z" fill="#FFCF2D"/>
<path d="M72.2441 25.8809C73.4114 26.7779 73.6118 28.3291 72.7118 29.5002C71.8118 30.6714 70.2613 30.877 69.094 29.98C67.9267 29.0829 67.7263 27.5318 68.6263 26.3606C69.5263 25.1895 71.0768 24.9839 72.2441 25.8809Z" fill="#FFCF2D"/>
<path d="M85.5942 8.50884C86.7614 9.40588 86.9619 10.957 86.0619 12.1282C85.1619 13.2993 83.6114 13.5049 82.4441 12.6079C81.2768 11.7109 81.0764 10.1597 81.9764 8.98855C82.8764 7.8174 84.4269 7.61181 85.5942 8.50884Z" fill="#FFCF2D"/>
<path d="M19.6865 124.272C20.8537 125.169 21.0542 126.72 20.1542 127.891C19.2542 129.062 17.6064 129.193 16.5364 128.371C15.3691 127.474 15.1687 125.922 16.0687 124.751C16.9687 123.58 18.5192 123.374 19.6865 124.272Z" fill="#FFCF2D"/>
<path d="M33.1117 106.801C34.279 107.698 34.4795 109.249 33.5795 110.42C32.6794 111.591 31.129 111.797 29.9617 110.9C28.7944 110.003 28.594 108.452 29.494 107.281C30.319 106.207 31.9445 105.904 33.1117 106.801Z" fill="#FFCF2D"/>
<path d="M46.4618 89.4288C47.6291 90.3258 47.8296 91.8769 46.9296 93.0481C46.0295 94.2193 44.4791 94.4249 43.3118 93.5278C42.1445 92.6308 41.9441 91.0796 42.8441 89.9085C43.7441 88.7373 45.2946 88.5317 46.4618 89.4288Z" fill="#FFCF2D"/>
<path d="M59.8871 71.959C61.0544 72.8561 61.2549 74.4072 60.3549 75.5784C59.4548 76.7495 57.9044 76.9551 56.7371 76.0581C55.5698 75.1611 55.3693 73.6099 56.2694 72.4387C57.1694 71.2676 58.7199 71.062 59.8871 71.959Z" fill="#FFCF2D"/>
<path d="M73.3124 54.4893C74.4797 55.3863 74.6802 56.9375 73.7801 58.1086C72.8801 59.2798 71.3297 59.4854 70.1624 58.5884C68.9951 57.6913 68.7946 56.1402 69.6947 54.969C70.5197 53.8955 72.1451 53.5923 73.3124 54.4893Z" fill="#FFCF2D"/>
<path d="M86.7377 37.0196C87.905 37.9166 88.1055 39.4678 87.2054 40.6389C86.3054 41.8101 84.7549 42.0157 83.5877 41.1186C82.4204 40.2216 82.2199 38.6705 83.1199 37.4993C84.02 36.3281 85.5704 36.1225 86.7377 37.0196Z" fill="#FFCF2D"/>
<path d="M100.088 19.6475C101.255 20.5445 101.456 22.0957 100.556 23.2669C99.6555 24.438 98.105 24.6436 96.9378 23.7466C95.7705 22.8495 95.57 21.2984 96.47 20.1272C97.3701 18.9561 98.9205 18.7505 100.088 19.6475Z" fill="#FFCF2D"/>
<path d="M113.513 2.17777C114.68 3.07481 114.881 4.62596 113.981 5.79713C113.081 6.96829 111.53 7.17388 110.363 6.27684C109.196 5.37981 108.995 3.82866 109.895 2.6575C110.795 1.48634 112.346 1.28074 113.513 2.17777Z" fill="#FFCF2D"/>
<path d="M62.9736 157.536C64.1408 158.433 64.3413 159.984 63.4413 161.156C62.5413 162.327 60.9908 162.532 59.8235 161.635C58.6562 160.738 58.4558 159.187 59.3558 158.016C60.2558 156.845 61.9036 156.714 62.9736 157.536Z" fill="#FFCF2D"/>
<path d="M76.3989 140.066C77.5661 140.963 77.7666 142.515 76.8666 143.686C75.9665 144.857 74.4161 145.063 73.2488 144.166C72.0815 143.268 71.8811 141.717 72.7811 140.546C73.6061 139.473 75.3288 139.244 76.3989 140.066Z" fill="#FFCF2D"/>
<path d="M89.749 122.694C90.9162 123.591 91.1167 125.143 90.2167 126.314C89.3167 127.485 87.7662 127.69 86.5989 126.793C85.4316 125.896 85.2312 124.345 86.1312 123.174C87.0312 122.003 88.6789 121.872 89.749 122.694Z" fill="#FFCF2D"/>
<path d="M103.174 105.225C104.342 106.122 104.542 107.673 103.642 108.844C102.742 110.015 101.191 110.221 100.024 109.324C98.8569 108.427 98.6565 106.876 99.5565 105.704C100.456 104.533 102.104 104.402 103.174 105.225Z" fill="#FFCF2D"/>
<path d="M116.6 87.7549C117.767 88.652 117.967 90.2031 117.067 91.3743C116.167 92.5454 114.617 92.751 113.449 91.854C112.282 90.957 112.082 89.4058 112.982 88.2346C113.807 87.1611 115.53 86.9326 116.6 87.7549Z" fill="#FFCF2D"/>
<path d="M130.025 70.2842C131.192 71.1813 131.393 72.7324 130.493 73.9036C129.593 75.0747 128.042 75.2803 126.875 74.3833C125.707 73.4863 125.507 71.9351 126.407 70.7639C127.307 69.5928 128.955 69.4619 130.025 70.2842Z" fill="#FFCF2D"/>
<path d="M143.375 52.9121C144.542 53.8092 144.743 55.3603 143.843 56.5315C142.943 57.7027 141.392 57.9083 140.225 57.0112C139.058 56.1142 138.857 54.563 139.757 53.3919C140.657 52.2207 142.305 52.0899 143.375 52.9121Z" fill="#FFCF2D"/>
<path d="M156.8 35.4424C157.968 36.3395 158.168 37.8906 157.268 39.0618C156.368 40.2329 154.817 40.4385 153.65 39.5415C152.483 38.6445 152.282 37.0933 153.182 35.9221C154.082 34.751 155.73 34.6201 156.8 35.4424Z" fill="#FFCF2D"/>
<path d="M170.226 17.9727C171.393 18.8697 171.593 20.4209 170.693 21.592C169.793 22.7632 168.243 22.9688 167.075 22.0718C165.908 21.1747 165.708 19.6236 166.608 18.4524C167.433 17.3789 169.155 17.1504 170.226 17.9727Z" fill="#FFCF2D"/>
<path d="M77.4672 168.674C78.6345 169.571 78.8349 171.122 77.9349 172.293C77.0349 173.464 75.4844 173.67 74.3172 172.773C73.1499 171.876 72.9494 170.325 73.8494 169.154C74.7495 167.982 76.2999 167.777 77.4672 168.674Z" fill="#FFCF2D"/>
<path d="M90.8925 151.204C92.0598 152.101 92.2602 153.652 91.3602 154.823C90.4602 155.995 88.9097 156.2 87.7424 155.303C86.5752 154.406 86.3747 152.855 87.2747 151.684C88.0998 150.61 89.7252 150.307 90.8925 151.204Z" fill="#FFCF2D"/>
<path d="M104.243 133.832C105.41 134.729 105.61 136.28 104.71 137.451C103.81 138.623 102.26 138.828 101.093 137.931C99.9253 137.034 99.7248 135.483 100.625 134.312C101.525 133.141 103.075 132.935 104.243 133.832Z" fill="#FFCF2D"/>
<path d="M118.136 119.982C119.005 118.85 118.796 117.229 117.668 116.362C116.54 115.495 114.92 115.71 114.05 116.842C113.18 117.974 113.39 119.594 114.518 120.461C115.646 121.328 117.266 121.114 118.136 119.982Z" fill="#FFCF2D"/>
<path d="M131.093 98.8926C132.26 99.7897 132.461 101.341 131.561 102.512C130.661 103.683 129.11 103.889 127.943 102.992C126.776 102.095 126.575 100.544 127.475 99.3723C128.3 98.2988 129.926 97.9956 131.093 98.8926Z" fill="#FFCF2D"/>
<path d="M144.518 81.4229C145.686 82.3199 145.886 83.8711 144.986 85.0422C144.086 86.2134 142.536 86.419 141.368 85.522C140.201 84.6249 140.001 83.0738 140.901 81.9026C141.801 80.7315 143.351 80.5259 144.518 81.4229Z" fill="#FFCF2D"/>
<path d="M157.869 64.0508C159.036 64.9479 159.236 66.499 158.336 67.6702C157.436 68.8413 155.886 69.0469 154.719 68.1499C153.551 67.2529 153.351 65.7017 154.251 64.5305C155.151 63.3594 156.701 63.1538 157.869 64.0508Z" fill="#FFCF2D"/>
<path d="M171.762 50.2004C172.631 49.0685 172.422 47.4481 171.294 46.5811C170.166 45.7141 168.546 45.9289 167.676 47.0608C166.806 48.1927 167.016 49.8132 168.144 50.6802C169.272 51.5471 170.892 51.3324 171.762 50.2004Z" fill="#FFCF2D"/>
<path d="M184.719 29.1114C185.886 30.0084 186.087 31.5595 185.187 32.7307C184.287 33.9019 182.736 34.1075 181.569 33.2104C180.402 32.3134 180.201 30.7622 181.101 29.5911C181.926 28.5175 183.552 28.2143 184.719 29.1114Z" fill="#FFCF2D"/>
<path d="M91.9609 179.813C93.1282 180.71 93.3286 182.261 92.4286 183.432C91.5286 184.603 89.9781 184.809 88.8108 183.912C87.6435 183.015 87.4431 181.463 88.3431 180.292C89.2431 179.121 90.7936 178.916 91.9609 179.813Z" fill="#FFCF2D"/>
<path d="M105.386 162.343C106.553 163.24 106.754 164.791 105.854 165.962C104.954 167.133 103.403 167.339 102.236 166.442C101.069 165.545 100.868 163.994 101.768 162.823C102.593 161.749 104.219 161.446 105.386 162.343Z" fill="#FFCF2D"/>
<path d="M118.736 144.971C119.904 145.868 120.104 147.419 119.204 148.59C118.304 149.761 116.753 149.967 115.586 149.07C114.419 148.173 114.218 146.622 115.118 145.45C116.018 144.279 117.569 144.074 118.736 144.971Z" fill="#FFCF2D"/>
<path d="M132.162 127.501C133.329 128.398 133.529 129.949 132.629 131.12C131.729 132.292 130.179 132.497 129.012 131.6C127.844 130.703 127.644 129.152 128.544 127.981C129.444 126.81 130.994 126.604 132.162 127.501Z" fill="#FFCF2D"/>
<path d="M145.587 110.031C146.754 110.928 146.955 112.479 146.055 113.651C145.155 114.822 143.604 115.027 142.437 114.13C141.27 113.233 141.069 111.682 141.969 110.511C142.794 109.437 144.42 109.134 145.587 110.031Z" fill="#FFCF2D"/>
<path d="M159.012 92.5606C160.179 93.4576 160.38 95.0088 159.48 96.1799C158.58 97.3511 157.029 97.5567 155.862 96.6597C154.695 95.7626 154.494 94.2115 155.394 93.0403C156.294 91.8692 157.845 91.6636 159.012 92.5606Z" fill="#FFCF2D"/>
<path d="M172.362 75.1885C173.53 76.0856 173.73 77.6367 172.83 78.8079C171.93 79.979 170.379 80.1846 169.212 79.2876C168.045 78.3906 167.844 76.8394 168.744 75.6682C169.644 74.4971 171.195 74.2915 172.362 75.1885Z" fill="#FFCF2D"/>
<path d="M185.788 57.7188C186.955 58.6158 187.155 60.167 186.255 61.3381C185.355 62.5093 183.805 62.7149 182.637 61.8179C181.47 60.9208 181.27 59.3697 182.17 58.1985C183.07 57.0274 184.62 56.8218 185.788 57.7188Z" fill="#FFCF2D"/>
<path d="M199.213 40.2491C200.38 41.1461 200.581 42.6973 199.681 43.8684C198.781 45.0396 197.23 45.2452 196.063 44.3481C194.895 43.4511 194.695 41.8999 195.595 40.7288C196.42 39.6552 198.046 39.352 199.213 40.2491Z" fill="#FFCF2D"/>
<path d="M106.357 190.876C107.525 191.773 107.725 193.324 106.825 194.495C105.925 195.667 104.375 195.872 103.207 194.975C102.04 194.078 101.84 192.527 102.74 191.356C103.64 190.185 105.287 190.054 106.357 190.876Z" fill="#FFCF2D"/>
<path d="M119.783 173.406C120.95 174.303 121.15 175.854 120.25 177.026C119.35 178.197 117.8 178.402 116.633 177.505C115.465 176.608 115.265 175.057 116.165 173.886C116.99 172.812 118.713 172.584 119.783 173.406Z" fill="#FFCF2D"/>
<path d="M133.133 156.034C134.3 156.931 134.5 158.482 133.6 159.654C132.7 160.825 131.15 161.03 129.983 160.133C128.815 159.236 128.615 157.685 129.515 156.514C130.415 155.343 132.063 155.212 133.133 156.034Z" fill="#FFCF2D"/>
<path d="M146.558 138.564C147.725 139.462 147.926 141.013 147.026 142.184C146.126 143.355 144.575 143.561 143.408 142.664C142.241 141.767 142.04 140.215 142.94 139.044C143.84 137.873 145.488 137.742 146.558 138.564Z" fill="#FFCF2D"/>
<path d="M159.983 121.094C161.151 121.991 161.351 123.542 160.451 124.713C159.551 125.884 158.001 126.09 156.833 125.193C155.666 124.296 155.466 122.745 156.366 121.574C157.191 120.5 158.913 120.272 159.983 121.094Z" fill="#FFCF2D"/>
<path d="M173.409 103.624C174.576 104.521 174.776 106.072 173.876 107.243C172.976 108.415 171.426 108.62 170.259 107.723C169.091 106.826 168.891 105.275 169.791 104.104C170.691 102.933 172.339 102.802 173.409 103.624Z" fill="#FFCF2D"/>
<path d="M186.759 86.252C187.926 87.149 188.126 88.7002 187.226 89.8713C186.326 91.0425 184.776 91.2481 183.609 90.3511C182.441 89.454 182.241 87.9029 183.141 86.7317C184.041 85.5606 185.689 85.4297 186.759 86.252Z" fill="#FFCF2D"/>
<path d="M200.184 68.7823C201.351 69.6793 201.552 71.2305 200.652 72.4016C199.752 73.5728 198.201 73.7784 197.034 72.8813C195.867 71.9843 195.666 70.4332 196.566 69.262C197.466 68.0908 199.114 67.96 200.184 68.7823Z" fill="#FFCF2D"/>
<path d="M213.609 51.3126C214.777 52.2096 214.977 53.7607 214.077 54.9319C213.177 56.103 211.627 56.3086 210.459 55.4116C209.292 54.5146 209.092 52.9634 209.992 51.7923C210.817 50.7187 212.539 50.4903 213.609 51.3126Z" fill="#FFCF2D"/>
</g>
<defs>
<clipPath id="clip0_2234_9590">
<rect width="181.184" height="132.739" fill="white" transform="translate(0 115.662) rotate(-52.4584)"/>
</clipPath>
</defs>
</svg>
