<svg width="124" height="225" viewBox="0 0 124 225" fill="none" xmlns="http://www.w3.org/2000/svg">
<g opacity="0.8" clip-path="url(#clip0_2234_9590)">
<path d="M9.1342 76.0831C10.3015 76.9801 10.5019 78.5312 9.60192 79.7024C8.70191 80.8736 7.15143 81.0792 5.98415 80.1821C4.81687 79.2851 4.61642 77.7339 5.51643 76.5628C6.41645 75.3916 8.0642 75.2608 9.1342 76.0831Z" fill="#FFCF2D"/>
<path d="M22.4843 58.711C23.6516 59.608 23.852 61.1592 22.952 62.3303C22.052 63.5015 20.5015 63.7071 19.3342 62.81C18.167 61.913 17.9665 60.3619 18.8665 59.1907C19.7666 58.0195 21.4143 57.8887 22.4843 58.711Z" fill="#FFCF2D"/>
<path d="M35.9096 41.2413C37.0769 42.1383 37.2773 43.6894 36.3773 44.8606C35.4773 46.0318 33.9268 46.2374 32.7595 45.3403C31.5923 44.4433 31.3918 42.8921 32.2918 41.721C33.1918 40.5498 34.8396 40.419 35.9096 41.2413Z" fill="#FFCF2D"/>
<path d="M49.3349 23.7715C50.5022 24.6686 50.7026 26.2197 49.8026 27.3909C48.9026 28.562 47.3521 28.7676 46.1848 27.8706C45.0176 26.9736 44.8171 25.4224 45.7171 24.2513C46.5421 23.1777 48.2649 22.9493 49.3349 23.7715Z" fill="#FFCF2D"/>
<path d="M10.2026 104.69C11.3699 105.588 11.5703 107.139 10.6703 108.31C9.77027 109.481 8.2198 109.687 7.05251 108.79C5.88523 107.893 5.68478 106.341 6.58479 105.17C7.40981 104.097 9.03529 103.793 10.2026 104.69Z" fill="#FFCF2D"/>
<path d="M23.6279 87.2208C24.7951 88.1178 24.9956 89.6689 24.0956 90.8401C23.1956 92.0113 21.6451 92.2169 20.4778 91.3198C19.3105 90.4228 19.1101 88.8716 20.0101 87.7005C20.9101 86.5293 22.4606 86.3237 23.6279 87.2208Z" fill="#FFCF2D"/>
<path d="M36.978 69.8487C38.1452 70.7457 38.3457 72.2969 37.4457 73.468C36.5457 74.6392 34.9952 74.8448 33.8279 73.9477C32.6606 73.0507 32.4602 71.4996 33.3602 70.3284C34.2602 69.1572 35.8107 68.9517 36.978 69.8487Z" fill="#FFCF2D"/>
<path d="M50.4033 52.3789C51.5705 53.276 51.771 54.8271 50.871 55.9983C49.971 57.1695 48.4205 57.3751 47.2532 56.478C46.0859 55.581 45.8855 54.0298 46.7855 52.8587C47.6855 51.6875 49.236 51.4819 50.4033 52.3789Z" fill="#FFCF2D"/>
<path d="M63.8285 34.9092C64.9958 35.8063 65.1963 37.3574 64.2963 38.5286C63.3962 39.6997 61.8458 39.9053 60.6785 39.0083C59.5112 38.1113 59.3108 36.5601 60.2108 35.3889C61.0358 34.3154 62.6613 34.0122 63.8285 34.9092Z" fill="#FFCF2D"/>
<path d="M7.01947 19.0391C8.18675 19.9361 8.38719 21.4873 7.48718 22.6585C6.58716 23.8296 5.03669 24.0352 3.86941 23.1382C2.70212 22.2411 2.50167 20.69 3.40169 19.5188C4.3017 18.3477 5.85218 18.1421 7.01947 19.0391Z" fill="#FFCF2D"/>
<path d="M20.4447 1.5694C21.612 2.46644 21.8125 4.01757 20.9125 5.18873C20.0125 6.35988 18.462 6.56548 17.2947 5.66845C16.1274 4.77141 15.927 3.22026 16.827 2.0491C17.652 0.975542 19.2775 0.672364 20.4447 1.5694Z" fill="#FFCF2D"/>
<path d="M8.08782 47.6475C9.2551 48.5445 9.45555 50.0957 8.55554 51.2669C7.65552 52.438 6.10505 52.6436 4.93776 51.7466C3.77048 50.8495 3.57003 49.2984 4.47005 48.1272C5.37006 46.9561 6.92053 46.7505 8.08782 47.6475Z" fill="#FFCF2D"/>
<path d="M21.5131 30.1778C22.6804 31.0748 22.8808 32.626 21.9808 33.7971C21.0808 34.9683 19.5303 35.1739 18.3631 34.2768C17.1958 33.3798 16.9953 31.8287 17.8953 30.6575C18.7954 29.4863 20.3458 29.2807 21.5131 30.1778Z" fill="#FFCF2D"/>
<path d="M34.9384 12.7081C36.1057 13.6051 36.3061 15.1562 35.4061 16.3274C34.5061 17.4986 32.9556 17.7042 31.7884 16.8071C30.6211 15.9101 30.4206 14.3589 31.3206 13.1878C32.1457 12.1142 33.7711 11.811 34.9384 12.7081Z" fill="#FFCF2D"/>
<path d="M11.1742 133.225C12.3415 134.122 12.542 135.673 11.642 136.844C10.7419 138.015 9.19147 138.221 8.02419 137.324C6.8569 136.427 6.65646 134.876 7.55648 133.704C8.45649 132.533 10.1042 132.402 11.1742 133.225Z" fill="#FFCF2D"/>
<path d="M24.5995 115.755C25.7668 116.652 25.9673 118.203 25.0673 119.374C24.1672 120.545 22.6168 120.751 21.4495 119.854C20.2822 118.957 20.0817 117.406 20.9818 116.235C21.8068 115.161 23.5295 114.933 24.5995 115.755Z" fill="#FFCF2D"/>
<path d="M38.0248 98.2842C39.1921 99.1813 39.3926 100.732 38.4925 101.904C37.5925 103.075 36.0421 103.28 34.8748 102.383C33.7075 101.486 33.507 99.9351 34.4071 98.7639C35.3071 97.5928 36.9548 97.4619 38.0248 98.2842Z" fill="#FFCF2D"/>
<path d="M51.3749 80.9121C52.5422 81.8092 52.7427 83.3603 51.8427 84.5315C50.9426 85.7027 49.3922 85.9083 48.2249 85.0112C47.0576 84.1142 46.8571 82.563 47.7572 81.3919C48.6572 80.2207 50.3049 80.0899 51.3749 80.9121Z" fill="#FFCF2D"/>
<path d="M64.8002 63.4424C65.9675 64.3395 66.168 65.8906 65.2679 67.0618C64.3679 68.2329 62.8174 68.4385 61.6502 67.5415C60.4829 66.6445 60.2824 65.0933 61.1824 63.9221C62.0825 62.751 63.7302 62.6201 64.8002 63.4424Z" fill="#FFCF2D"/>
<path d="M78.2255 45.9727C79.3928 46.8697 79.5932 48.4209 78.6932 49.592C77.7932 50.7632 76.2427 50.9688 75.0755 50.0718C73.9082 49.1747 73.7077 47.6236 74.6077 46.4524C75.4328 45.3789 77.1555 45.1504 78.2255 45.9727Z" fill="#FFCF2D"/>
<path d="M-1.10749 179.204C0.0597871 180.101 0.260234 181.652 -0.639782 182.823C-1.5398 183.995 -3.09027 184.2 -4.25755 183.303C-5.42483 182.406 -5.62528 180.855 -4.72526 179.684C-3.90025 178.61 -2.27478 178.307 -1.10749 179.204Z" fill="#FFCF2D"/>
<path d="M12.2426 161.832C13.4099 162.729 13.6103 164.28 12.7103 165.451C11.8103 166.623 10.2598 166.828 9.09255 165.931C7.92526 165.034 7.72482 163.483 8.62483 162.312C9.52485 161.141 11.0753 160.935 12.2426 161.832Z" fill="#FFCF2D"/>
<path d="M26.1356 147.982C27.0055 146.85 26.7961 145.229 25.6679 144.362C24.5397 143.495 22.92 143.71 22.0501 144.842C21.1803 145.974 21.3897 147.594 22.5178 148.461C23.646 149.328 25.2657 149.114 26.1356 147.982Z" fill="#FFCF2D"/>
<path d="M39.0932 126.893C40.2605 127.79 40.4609 129.341 39.5609 130.512C38.6609 131.683 37.1104 131.889 35.9431 130.992C34.7758 130.095 34.5754 128.544 35.4754 127.372C36.3004 126.299 37.9259 125.996 39.0932 126.893Z" fill="#FFCF2D"/>
<path d="M52.5185 109.423C53.6858 110.32 53.8862 111.871 52.9862 113.042C52.0862 114.213 50.5357 114.419 49.3684 113.522C48.2011 112.625 48.0007 111.074 48.9007 109.903C49.8007 108.731 51.3512 108.526 52.5185 109.423Z" fill="#FFCF2D"/>
<path d="M65.8686 92.0508C67.0359 92.9479 67.2363 94.499 66.3363 95.6702C65.4363 96.8413 63.8858 97.0469 62.7185 96.1499C61.5512 95.2529 61.3508 93.7017 62.2508 92.5305C63.1508 91.3594 64.7013 91.1538 65.8686 92.0508Z" fill="#FFCF2D"/>
<path d="M79.7616 78.2004C80.6314 77.0685 80.4221 75.4481 79.2939 74.5811C78.1657 73.7141 76.546 73.9289 75.6761 75.0608C74.8062 76.1927 75.0156 77.8132 76.1438 78.6802C77.272 79.5471 78.8917 79.3324 79.7616 78.2004Z" fill="#FFCF2D"/>
<path d="M92.7192 57.1114C93.8864 58.0084 94.0869 59.5595 93.1869 60.7307C92.2869 61.9019 90.7364 62.1075 89.5691 61.2104C88.4018 60.3134 88.2014 58.7622 89.1014 57.5911C89.9264 56.5175 91.5519 56.2143 92.7192 57.1114Z" fill="#FFCF2D"/>
<path d="M-0.0391263 207.813C1.12816 208.71 1.32861 210.261 0.428589 211.432C-0.471427 212.603 -2.0219 212.809 -3.18918 211.912C-4.35647 211.015 -4.55692 209.463 -3.65691 208.292C-2.75689 207.121 -1.20641 206.916 -0.0391263 207.813Z" fill="#FFCF2D"/>
<path d="M13.3862 190.343C14.5535 191.24 14.7539 192.791 13.8539 193.962C12.9539 195.133 11.4034 195.339 10.2361 194.442C9.06883 193.545 8.86837 191.994 9.76839 190.823C10.5934 189.749 12.2189 189.446 13.3862 190.343Z" fill="#FFCF2D"/>
<path d="M26.7363 172.971C27.9035 173.868 28.104 175.419 27.204 176.59C26.304 177.761 24.7535 177.967 23.5862 177.07C22.4189 176.173 22.2185 174.622 23.1185 173.45C24.0185 172.279 25.569 172.074 26.7363 172.971Z" fill="#FFCF2D"/>
<path d="M40.1616 155.501C41.3288 156.398 41.5293 157.949 40.6293 159.12C39.7293 160.292 38.1788 160.497 37.0115 159.6C35.8442 158.703 35.6438 157.152 36.5438 155.981C37.4438 154.81 38.9943 154.604 40.1616 155.501Z" fill="#FFCF2D"/>
<path d="M53.5868 138.031C54.7541 138.928 54.9546 140.479 54.0546 141.651C53.1545 142.822 51.6041 143.027 50.4368 142.13C49.2695 141.233 49.0691 139.682 49.9691 138.511C50.7941 137.437 52.4196 137.134 53.5868 138.031Z" fill="#FFCF2D"/>
<path d="M67.0121 120.561C68.1794 121.458 68.3799 123.009 67.4799 124.18C66.5798 125.351 65.0294 125.557 63.8621 124.66C62.6948 123.763 62.4943 122.211 63.3944 121.04C64.2944 119.869 65.8449 119.664 67.0121 120.561Z" fill="#FFCF2D"/>
<path d="M80.3622 103.189C81.5295 104.086 81.73 105.637 80.83 106.808C79.9299 107.979 78.3795 108.185 77.2122 107.288C76.0449 106.391 75.8444 104.839 76.7445 103.668C77.6445 102.497 79.195 102.291 80.3622 103.189Z" fill="#FFCF2D"/>
<path d="M93.7875 85.7188C94.9548 86.6158 95.1553 88.167 94.2552 89.3381C93.3552 90.5093 91.8048 90.7149 90.6375 89.8179C89.4702 88.9208 89.2697 87.3697 90.1698 86.1985C91.0698 85.0274 92.6203 84.8218 93.7875 85.7188Z" fill="#FFCF2D"/>
<path d="M107.213 68.2491C108.38 69.1461 108.581 70.6973 107.681 71.8684C106.781 73.0396 105.23 73.2452 104.063 72.3481C102.895 71.4511 102.695 69.8999 103.595 68.7288C104.42 67.6552 106.046 67.352 107.213 68.2491Z" fill="#FFCF2D"/>
<path d="M14.3574 218.876C15.5246 219.773 15.7251 221.324 14.8251 222.495C13.9251 223.667 12.3746 223.872 11.2073 222.975C10.04 222.078 9.83956 220.527 10.7396 219.356C11.6396 218.185 13.2873 218.054 14.3574 218.876Z" fill="#FFCF2D"/>
<path d="M27.7826 201.406C28.9499 202.303 29.1504 203.854 28.2504 205.026C27.3504 206.197 25.7999 206.402 24.6326 205.505C23.4653 204.608 23.2649 203.057 24.1649 201.886C24.9899 200.812 26.7126 200.584 27.7826 201.406Z" fill="#FFCF2D"/>
<path d="M41.1327 184.034C42.3 184.931 42.5005 186.482 41.6005 187.654C40.7004 188.825 39.15 189.03 37.9827 188.133C36.8154 187.236 36.615 185.685 37.515 184.514C38.415 183.343 40.0627 183.212 41.1327 184.034Z" fill="#FFCF2D"/>
<path d="M54.558 166.564C55.7253 167.462 55.9258 169.013 55.0257 170.184C54.1257 171.355 52.5753 171.561 51.408 170.664C50.2407 169.767 50.0402 168.215 50.9403 167.044C51.8403 165.873 53.488 165.742 54.558 166.564Z" fill="#FFCF2D"/>
<path d="M67.9833 149.094C69.1506 149.991 69.3511 151.542 68.451 152.713C67.551 153.884 66.0006 154.09 64.8333 153.193C63.666 152.296 63.4655 150.745 64.3656 149.574C65.1906 148.5 66.9133 148.272 67.9833 149.094Z" fill="#FFCF2D"/>
<path d="M81.4086 131.624C82.5759 132.521 82.7763 134.072 81.8763 135.243C80.9763 136.415 79.4258 136.62 78.2586 135.723C77.0913 134.826 76.8908 133.275 77.7908 132.104C78.6909 130.933 80.3386 130.802 81.4086 131.624Z" fill="#FFCF2D"/>
<path d="M94.7587 114.252C95.926 115.149 96.1264 116.7 95.2264 117.871C94.3264 119.042 92.7759 119.248 91.6087 118.351C90.4414 117.454 90.2409 115.903 91.141 114.732C92.041 113.561 93.6887 113.43 94.7587 114.252Z" fill="#FFCF2D"/>
<path d="M108.184 96.7823C109.351 97.6793 109.552 99.2305 108.652 100.402C107.752 101.573 106.201 101.778 105.034 100.881C103.867 99.9843 103.666 98.4332 104.566 97.262C105.466 96.0908 107.114 95.96 108.184 96.7823Z" fill="#FFCF2D"/>
<path d="M121.609 79.3126C122.777 80.2096 122.977 81.7607 122.077 82.9319C121.177 84.103 119.627 84.3086 118.459 83.4116C117.292 82.5146 117.092 80.9634 117.992 79.7923C118.817 78.7187 120.539 78.4903 121.609 79.3126Z" fill="#FFCF2D"/>
</g>
<defs>
<clipPath id="clip0_2234_9590">
<rect width="181.184" height="132.739" fill="white" transform="translate(-92 143.662) rotate(-52.4584)"/>
</clipPath>
</defs>
</svg>
