<?xml version="1.0" standalone="no"?>
<!DOCTYPE svg PUBLIC "-//W3C//DTD SVG 20010904//EN"
 "http://www.w3.org/TR/2001/REC-SVG-20010904/DTD/svg10.dtd">
<svg version="1.0" xmlns="http://www.w3.org/2000/svg"
 width="7581.000000pt" height="3293.000000pt" viewBox="0 0 7581.000000 3293.000000"
 preserveAspectRatio="xMidYMid meet">

<g transform="translate(0.000000,3293.000000) scale(0.100000,-0.100000)"
fill="#000000" stroke="none">
<path d="M38766 31613 c-307 -41 -596 -155 -772 -306 -91 -77 -145 -145 -252
-317 -132 -213 -340 -542 -429 -678 -40 -61 -73 -114 -73 -117 0 -3 -22 -38
-49 -78 -26 -39 -73 -110 -103 -157 -82 -128 -155 -240 -252 -389 -153 -234
-196 -330 -196 -442 0 -87 18 -137 65 -185 83 -82 159 -92 560 -71 154 9 283
13 287 11 5 -3 8 -212 8 -466 l0 -460 24 6 c24 6 824 27 1736 46 719 15 2350
30 2575 25 105 -3 384 -7 620 -10 237 -2 481 -7 543 -11 l112 -7 0 482 0 483
263 -7 c144 -4 264 -9 265 -10 9 -8 113 30 167 60 126 70 209 176 222 284 6
56 6 57 -150 341 -113 205 -120 219 -156 278 -17 29 -31 55 -31 58 0 2 -11 23
-26 45 -14 22 -33 55 -43 72 -118 209 -338 556 -496 782 -61 88 -151 217 -199
287 -194 284 -306 388 -483 447 -62 21 -66 21 -1845 20 -1506 -1 -1800 -3
-1892 -16z m2712 -298 c75 -38 158 -164 255 -385 28 -65 60 -135 103 -228 24
-52 44 -96 44 -98 0 -2 13 -32 28 -66 114 -252 372 -946 372 -1001 0 -41 -23
-90 -66 -137 -64 -70 -66 -71 -291 -60 -818 38 -2008 11 -3118 -69 -276 -20
-302 -18 -339 32 -29 40 -27 138 6 232 24 66 112 278 164 393 13 29 24 55 24
58 0 3 6 20 14 37 44 96 146 336 146 342 0 2 11 28 24 57 23 50 47 108 132
316 117 286 145 335 243 424 83 74 212 137 317 154 21 3 41 8 43 10 2 2 424 4
936 4 820 0 936 -2 963 -15z"/>
<path d="M43383 28003 c9 -2 23 -2 30 0 6 3 -1 5 -18 5 -16 0 -22 -2 -12 -5z"/>
<path d="M43668 27993 c6 -2 18 -2 25 0 6 3 1 5 -13 5 -14 0 -19 -2 -12 -5z"/>
<path d="M43908 27983 c6 -2 18 -2 25 0 6 3 1 5 -13 5 -14 0 -19 -2 -12 -5z"/>
<path d="M44118 27973 c6 -2 18 -2 25 0 6 3 1 5 -13 5 -14 0 -19 -2 -12 -5z"/>
<path d="M44308 27963 c6 -2 18 -2 25 0 6 3 1 5 -13 5 -14 0 -19 -2 -12 -5z"/>
<path d="M44488 27953 c7 -3 16 -2 19 1 4 3 -2 6 -13 5 -11 0 -14 -3 -6 -6z"/>
<path d="M44638 27943 c6 -2 18 -2 25 0 6 3 1 5 -13 5 -14 0 -19 -2 -12 -5z"/>
<path d="M44788 27933 c7 -3 16 -2 19 1 4 3 -2 6 -13 5 -11 0 -14 -3 -6 -6z"/>
<path d="M48100 27423 c21 -27 26 -82 10 -113 -5 -10 -54 -41 -107 -70 -363
-193 -569 -392 -613 -592 -11 -49 -11 -63 4 -109 42 -126 115 -197 406 -392
678 -455 2127 -1489 3380 -2412 465 -343 993 -736 1000 -745 3 -3 52 -41 110
-84 137 -102 132 -98 300 -226 80 -61 208 -159 285 -218 1313 -1000 2363
-1851 3060 -2481 234 -212 633 -614 735 -741 149 -187 200 -278 214 -385 27
-200 31 -249 30 -425 -1 -159 -3 -182 -26 -251 -90 -272 -298 -377 -1013 -509
-467 -85 -806 -176 -1335 -356 -622 -211 -1204 -459 -1905 -812 -237 -119
-618 -344 -908 -535 -197 -129 -199 -131 -255 -130 l-57 1 55 -7 55 -6 -90
-65 c-1128 -809 -1855 -1651 -2312 -2680 -383 -862 -721 -2009 -988 -3355 -35
-176 -66 -338 -70 -359 -3 -21 -7 -48 -10 -60 -23 -102 -147 -864 -194 -1191
-50 -348 -118 -872 -142 -1099 -10 -100 -16 -123 -37 -147 l-24 -29 815 2
c777 3 816 4 835 22 12 10 22 28 24 40 3 20 7 21 186 24 l182 2 0 -32 c0 -143
41 -530 80 -766 379 -2258 2090 -4107 4316 -4665 299 -75 559 -120 894 -153
247 -25 816 -25 1060 -1 774 78 1432 268 2095 602 755 381 1421 925 1947 1590
607 769 1012 1680 1172 2640 35 207 55 378 69 595 l12 185 144 3 c126 2 146 0
163 -15 18 -16 52 -18 397 -21 l376 -3 44 -95 c134 -288 347 -519 611 -663
l75 -41 4577 0 c4526 0 4579 0 4650 -20 189 -51 438 -68 613 -40 291 45 538
201 698 442 l56 84 397 1940 396 1939 -16 98 c-59 363 -352 646 -783 758 -105
27 -283 54 -393 61 l-45 3 3 100 c5 147 -16 513 -38 661 -18 122 -43 238 -140
636 -227 936 -211 860 -197 923 12 61 14 53 -113 543 -22 84 -60 232 -85 330
-504 1962 -961 3715 -975 3743 -58 114 -286 366 -495 548 -397 347 -910 674
-1215 775 -91 30 -90 30 -450 46 -664 30 -1996 171 -4115 436 -1325 165 -3466
449 -4905 650 l-265 37 -140 70 c-333 165 -888 477 -1455 817 -577 345 -1135
692 -2530 1570 -1541 970 -2885 1795 -3535 2170 -16 9 -106 61 -200 115 -93
54 -174 101 -180 105 -5 4 -32 20 -60 36 -27 15 -153 87 -280 159 -410 236
-884 493 -1175 639 -803 401 -1641 714 -2528 945 l-152 40 20 -26z m534 -831
c119 -60 173 -95 551 -351 99 -68 270 -183 380 -257 110 -75 441 -297 735
-496 294 -198 697 -468 895 -601 198 -132 362 -243 365 -247 9 -10 2856 -1905
3420 -2275 2325 -1527 3530 -2282 3905 -2447 225 -100 625 -211 1126 -313 564
-115 1105 -202 2594 -415 976 -140 1586 -232 1805 -271 63 -11 124 -22 135
-24 62 -10 102 -17 115 -20 8 -2 35 -7 60 -10 25 -3 61 -10 80 -15 19 -5 51
-11 70 -14 76 -12 149 -26 240 -45 52 -11 109 -22 125 -25 70 -13 399 -87 485
-110 478 -128 735 -235 869 -360 76 -72 91 -109 91 -232 0 -306 -188 -552
-570 -744 -179 -90 -391 -164 -611 -214 -87 -20 -189 -24 -1029 -41 -3093 -64
-4091 -78 -5665 -79 -1582 -1 -1864 9 -2062 75 -64 21 -113 57 -113 84 0 100
255 248 688 400 363 128 521 209 665 345 295 275 279 655 -45 1082 -32 42 -84
105 -116 139 -35 38 -1157 926 -2902 2298 -2681 2106 -2865 2249 -3196 2477
-1984 1367 -3162 2282 -3301 2565 -17 35 -37 85 -43 111 -11 42 -10 51 5 74
16 24 21 26 72 22 41 -4 84 -20 177 -66z m22984 -8522 c1 -16 7 -42 13 -57 13
-35 21 -62 23 -88 1 -11 8 -31 15 -43 7 -13 10 -26 7 -29 -3 -3 1 -21 9 -40 8
-19 14 -37 14 -41 -1 -4 0 -9 1 -12 5 -13 12 -47 14 -70 1 -14 8 -35 15 -47 6
-13 9 -23 6 -23 -3 0 2 -16 10 -37 8 -20 13 -38 11 -41 -3 -2 1 -19 9 -37 7
-19 11 -36 8 -39 -3 -3 0 -13 8 -23 12 -15 12 -16 -1 -8 -12 7 -13 6 -3 -6 7
-9 15 -33 19 -55 3 -21 11 -45 16 -51 6 -7 8 -13 5 -13 -3 0 2 -21 10 -47 20
-68 25 -85 27 -113 1 -14 5 -30 9 -36 3 -6 9 -30 13 -52 4 -23 9 -42 13 -42 3
0 6 -10 7 -22 1 -29 7 -52 16 -58 3 -3 9 -21 11 -40 3 -19 6 -35 7 -35 1 0 3
-13 5 -29 2 -16 7 -36 11 -45 8 -19 14 -39 16 -63 1 -10 5 -18 8 -18 3 0 6 -8
7 -17 1 -19 10 -58 13 -58 3 0 11 -39 12 -55 0 -8 5 -21 11 -27 5 -7 6 -13 3
-13 -4 0 -2 -10 5 -21 8 -16 8 -20 -1 -14 -7 4 -6 -5 4 -23 8 -16 13 -39 11
-51 -2 -12 0 -19 4 -16 11 6 23 -23 16 -36 -4 -5 2 -25 11 -44 9 -20 17 -47
17 -60 0 -14 4 -28 8 -31 5 -3 7 -9 4 -14 -3 -5 1 -25 9 -45 18 -41 18 -46 4
-63 -8 -9 -7 -11 6 -6 9 4 16 3 15 -2 -1 -5 1 -17 6 -27 4 -10 5 -20 2 -24 -4
-3 0 -18 8 -33 8 -15 12 -30 9 -33 -5 -5 2 -31 24 -97 8 -24 11 -33 27 -100 2
-8 4 -16 4 -17 1 -2 0 -4 -1 -5 -1 -2 4 -14 11 -27 11 -19 11 -22 -1 -15 -9 6
-8 1 3 -16 9 -14 15 -33 13 -42 -1 -10 2 -18 7 -18 4 0 6 -6 3 -14 -3 -8 0
-17 5 -21 6 -3 9 -10 6 -15 -3 -5 1 -25 9 -44 8 -19 12 -37 9 -40 -3 -3 0 -12
7 -21 7 -8 9 -15 5 -15 -4 0 -3 -6 3 -12 12 -15 24 -71 24 -108 0 -14 4 -31
10 -38 6 -7 12 -20 13 -30 4 -40 18 -98 28 -109 5 -7 6 -13 2 -13 -4 0 -2 -7
5 -15 7 -8 10 -22 6 -30 -3 -8 -1 -15 4 -15 5 0 7 -9 5 -20 -2 -11 1 -20 6
-20 5 0 9 -6 7 -12 -3 -16 11 -89 20 -102 3 -6 7 -22 9 -36 1 -15 9 -39 17
-55 8 -15 12 -33 10 -40 -3 -7 0 -16 5 -20 6 -3 9 -11 6 -16 -4 -5 -3 -15 2
-21 4 -7 9 -24 11 -37 2 -14 8 -33 13 -43 5 -10 7 -23 4 -28 -3 -5 -1 -19 6
-31 6 -12 13 -36 16 -53 3 -17 9 -36 14 -42 5 -7 9 -16 8 -20 -1 -5 0 -11 1
-14 5 -14 11 -38 16 -70 3 -19 8 -42 11 -50 4 -8 5 -21 4 -27 -1 -7 5 -25 12
-40 8 -16 12 -34 10 -40 -3 -7 0 -13 5 -13 6 0 8 -9 5 -20 -3 -11 0 -20 6 -20
6 0 11 -15 11 -33 0 -18 5 -38 12 -45 7 -7 9 -12 6 -12 -4 0 -2 -15 3 -32 14
-47 19 -69 25 -106 2 -19 11 -47 19 -62 8 -16 15 -42 15 -59 0 -16 5 -33 11
-36 5 -4 8 -12 6 -18 -2 -7 1 -25 7 -42 12 -29 12 -60 2 -115 -2 -14 -5 -26
-5 -27 -1 -2 -1 -6 -2 -10 0 -5 -7 -16 -16 -25 -8 -9 -12 -21 -9 -27 3 -5 0
-15 -7 -23 -8 -7 -12 -18 -10 -24 2 -6 -3 -17 -12 -24 -8 -7 -15 -18 -15 -25
0 -26 -83 -105 -142 -134 -53 -27 -72 -31 -143 -31 -47 0 -110 8 -151 18 -98
27 -225 82 -217 94 3 7 1 8 -5 4 -7 -4 -44 12 -84 36 -71 41 -125 88 -290 249
-43 42 -78 74 -78 71 0 -4 -25 18 -55 48 -30 29 -51 58 -48 63 3 6 2 7 -4 4
-13 -8 -365 322 -357 334 3 5 1 8 -5 7 -16 -5 -162 132 -155 145 4 7 4 9 -1 5
-10 -10 -237 201 -229 213 3 5 1 8 -5 7 -25 -7 -1486 1440 -1861 1842 -192
206 -390 432 -389 444 1 5 -6 13 -15 18 -20 11 -136 163 -136 177 0 6 -5 11
-12 11 -6 0 -9 3 -5 6 3 4 -1 13 -9 21 -8 8 -11 19 -8 25 4 7 2 8 -4 4 -12 -7
-16 5 -13 32 1 6 -3 12 -8 12 -6 0 -8 7 -5 15 4 8 2 21 -3 28 -14 17 -10 186
5 220 7 16 12 33 12 38 0 5 5 9 11 9 5 0 7 5 3 11 -8 14 107 127 138 134 26 6
3182 432 3213 434 16 1 21 -6 23 -29z m1290 -7067 c-10 -2 -26 -2 -35 0 -10 3
-2 5 17 5 19 0 27 -2 18 -5z m-68 -9 c-8 -2 -2229 -321 -4935 -709 -2706 -388
-4942 -710 -4970 -716 -197 -44 -386 -169 -469 -312 -15 -26 -30 -47 -33 -47
-8 0 7 90 24 145 47 149 138 258 265 319 40 19 92 39 115 45 197 52 2068 297
6348 831 1276 159 2606 325 2955 368 538 68 769 93 700 76z m-16905 -209
c1118 -131 2083 -736 2690 -1686 97 -152 250 -450 314 -614 188 -479 272 -963
258 -1479 -16 -565 -145 -1079 -397 -1576 -520 -1023 -1478 -1745 -2602 -1959
-400 -76 -875 -80 -1288 -10 -967 163 -1853 736 -2412 1559 -350 514 -552
1066 -624 1695 -20 181 -23 562 -5 745 125 1275 880 2384 2011 2954 460 233
908 353 1450 390 110 8 478 -4 605 -19z"/>
<path d="M70525 17780 c-19 -5 -6 -6 35 -3 36 3 67 7 69 9 8 7 -73 2 -104 -6z"/>
<path d="M70650 17780 c8 -5 28 -10 44 -10 39 0 30 6 -19 13 -27 4 -35 3 -25
-3z"/>
<path d="M70468 17773 c7 -3 16 -2 19 1 4 3 -2 6 -13 5 -11 0 -14 -3 -6 -6z"/>
<path d="M70340 17760 c-15 -5 1 -6 40 -3 36 3 67 7 69 9 8 7 -84 2 -109 -6z"/>
<path d="M70770 17755 c24 -8 46 -13 48 -11 5 5 -59 26 -77 25 -9 0 4 -7 29
-14z"/>
<path d="M70240 17750 l-45 -7 42 -1 c23 -1 45 3 48 8 3 6 5 9 3 8 -2 0 -23
-4 -48 -8z"/>
<path d="M70085 17730 c-34 -6 -35 -7 -10 -8 17 0 50 3 75 7 40 8 41 8 10 8
-19 0 -53 -3 -75 -7z"/>
<path d="M69993 17713 c9 -2 25 -2 35 0 9 3 1 5 -18 5 -19 0 -27 -2 -17 -5z"/>
<path d="M69880 17700 c-27 -6 -29 -8 -10 -8 14 -1 43 3 65 7 33 7 35 9 10 9
-16 -1 -46 -4 -65 -8z"/>
<path d="M69803 17683 c9 -2 23 -2 30 0 6 3 -1 5 -18 5 -16 0 -22 -2 -12 -5z"/>
<path d="M69743 17673 c9 -2 23 -2 30 0 6 3 -1 5 -18 5 -16 0 -22 -2 -12 -5z"/>
<path d="M69683 17663 c9 -2 23 -2 30 0 6 3 -1 5 -18 5 -16 0 -22 -2 -12 -5z"/>
<path d="M69576 17649 c-22 -5 -42 -12 -45 -15 -8 -8 71 7 89 17 18 10 7 10
-44 -2z"/>
<path d="M69445 17620 c-25 -11 1 -11 35 0 20 6 21 8 5 8 -11 0 -29 -3 -40 -8z"/>
<path d="M69400 17610 c-9 -6 -10 -10 -3 -10 6 0 15 5 18 10 8 12 4 12 -15 0z"/>
<path d="M69295 17589 c-60 -21 -50 -24 20 -6 27 7 45 15 40 18 -6 3 -32 -3
-60 -12z"/>
<path d="M69200 17568 c0 -6 -11 -8 -25 -6 -13 3 -22 1 -19 -3 3 -5 -4 -9 -15
-9 -11 0 -22 -4 -25 -9 -5 -7 49 3 119 23 5 1 -1 5 -13 8 -12 4 -22 2 -22 -4z"/>
<path d="M69065 17525 c-25 -12 -26 -14 -5 -9 14 4 29 10 35 15 12 12 5 11
-30 -6z"/>
<path d="M68980 17505 c-6 -7 -22 -16 -37 -20 -14 -3 -23 -8 -21 -10 3 -3 29
3 58 13 43 15 50 20 32 24 -12 3 -26 0 -32 -7z"/>
<path d="M68885 17460 c-3 -6 1 -7 9 -4 18 7 21 14 7 14 -6 0 -13 -4 -16 -10z"/>
<path d="M68775 17410 c-3 -6 1 -7 9 -4 18 7 21 14 7 14 -6 0 -13 -4 -16 -10z"/>
<path d="M70699 17253 c-13 -16 -12 -17 4 -4 9 7 17 15 17 17 0 8 -8 3 -21
-13z"/>
<path d="M70639 17183 c-13 -16 -12 -17 4 -4 16 13 21 21 13 21 -2 0 -10 -8
-17 -17z"/>
<path d="M68750 16966 c0 -2 8 -10 18 -17 15 -13 16 -12 3 4 -13 16 -21 21
-21 13z"/>
<path d="M68980 16707 c0 -2 15 -16 33 -33 l32 -29 -29 33 c-28 30 -36 37 -36
29z"/>
<path d="M69195 16480 c38 -38 72 -70 74 -70 3 0 -26 32 -64 70 -38 39 -72 70
-74 70 -3 0 26 -31 64 -70z"/>
<path d="M69910 15768 c57 -60 106 -108 107 -108 8 0 -5 13 -104 110 l-108
105 105 -107z"/>
<path d="M70600 15786 c0 -2 8 -10 18 -17 15 -13 16 -12 3 4 -13 16 -21 21
-21 13z"/>
<path d="M70177 15508 c3 -7 33 -38 67 -68 l61 -54 -65 67 c-67 70 -73 75 -63
55z"/>
<path d="M70860 15466 c0 -2 8 -10 18 -17 15 -13 16 -12 3 4 -13 16 -21 21
-21 13z"/>
<path d="M70465 15230 c33 -33 62 -60 64 -60 3 0 -21 27 -54 60 -33 33 -62 60
-64 60 -3 0 21 -27 54 -60z"/>
<path d="M71035 15270 c10 -11 20 -20 23 -20 3 0 -3 9 -13 20 -10 11 -20 20
-23 20 -3 0 3 -9 13 -20z"/>
<path d="M70665 15040 c27 -27 51 -50 54 -50 3 0 -17 23 -44 50 -27 28 -51 50
-54 50 -3 0 17 -22 44 -50z"/>
<path d="M71350 14937 c0 -1 35 -36 78 -77 l77 -75 -75 78 c-69 71 -80 82 -80
74z"/>
<path d="M70850 14868 c41 -45 50 -53 50 -45 0 2 -21 23 -47 47 l-48 45 45
-47z"/>
<path d="M71020 14708 c41 -45 50 -53 50 -45 0 2 -21 23 -47 47 l-48 45 45
-47z"/>
<path d="M71185 14550 c21 -22 41 -40 44 -40 3 0 -13 18 -34 40 -21 22 -41 40
-44 40 -3 0 13 -18 34 -40z"/>
<path d="M71330 14415 c19 -19 36 -35 39 -35 3 0 -10 16 -29 35 -19 19 -36 35
-39 35 -3 0 10 -16 29 -35z"/>
<path d="M71955 14342 c45 -47 73 -71 46 -39 -6 8 -9 17 -6 20 3 4 2 5 -2 2
-4 -3 -25 12 -47 32 -30 28 -28 24 9 -15z"/>
<path d="M71460 14295 c13 -14 26 -25 28 -25 3 0 -5 11 -18 25 -13 14 -26 25
-28 25 -3 0 5 -11 18 -25z"/>
<path d="M72095 14210 c10 -11 20 -20 23 -20 3 0 -3 9 -13 20 -10 11 -20 20
-23 20 -3 0 3 -9 13 -20z"/>
<path d="M71610 14155 c19 -19 36 -35 39 -35 3 0 -10 16 -29 35 -19 19 -36 35
-39 35 -3 0 10 -16 29 -35z"/>
<path d="M72237 14080 c18 -19 34 -32 36 -29 2 2 -12 17 -32 33 l-36 30 32
-34z"/>
<path d="M71710 14066 c0 -2 8 -10 18 -17 15 -13 16 -12 3 4 -13 16 -21 21
-21 13z"/>
<path d="M71920 13925 c0 -7 61 -37 66 -33 2 3 -12 12 -31 21 -19 9 -35 15
-35 12z"/>
<path d="M72014 13876 c11 -9 24 -16 30 -16 12 0 7 5 -24 19 -24 11 -24 11 -6
-3z"/>
<path d="M72309 13843 c-13 -16 -12 -17 4 -4 16 13 21 21 13 21 -2 0 -10 -8
-17 -17z"/>
<path d="M72160 13819 c34 -10 102 -10 116 -1 7 4 -23 7 -65 8 -45 0 -66 -3
-51 -7z"/>
<path d="M55277 10119 c-178 -14 -569 -86 -580 -107 -2 -4 0 -25 5 -48 l8 -40
113 28 c262 66 524 94 787 84 96 -3 189 -8 205 -10 17 -3 54 -7 83 -11 l52 -6
0 45 c0 43 -1 44 -37 50 -149 24 -430 31 -636 15z"/>
<path d="M56713 9847 c-26 -37 -29 -57 -10 -57 18 0 235 -111 336 -172 159
-96 334 -226 452 -336 l47 -43 31 40 32 40 -78 66 c-114 98 -267 211 -385 285
-90 56 -381 210 -397 210 -3 0 -16 -15 -28 -33z"/>
<path d="M54024 9733 c-122 -69 -289 -182 -414 -282 -135 -108 -376 -349 -428
-429 -14 -22 -14 -25 16 -55 l32 -32 47 55 c72 86 310 319 394 387 99 80 334
239 427 289 39 21 72 42 72 47 0 4 -10 23 -23 42 l-23 34 -100 -56z"/>
<path d="M55315 9534 c-138 -15 -322 -49 -457 -85 l-36 -9 57 -173 c80 -236
159 -428 267 -647 105 -212 185 -340 273 -431 l61 -64 21 25 c159 192 290 536
363 960 28 161 58 391 52 397 -18 18 -486 39 -601 27z"/>
<path d="M56396 9268 c-148 -319 -295 -753 -336 -996 -22 -126 -27 -312 -9
-312 26 0 195 63 271 101 239 119 518 352 805 669 l104 115 -68 65 c-140 134
-372 291 -568 385 -166 80 -148 82 -199 -27z"/>
<path d="M54385 9258 c-188 -94 -442 -285 -606 -455 -104 -107 -185 -206 -174
-210 6 -2 56 -38 110 -79 373 -285 888 -567 1096 -600 l38 -6 3 43 c5 76 -10
240 -32 349 -26 127 -110 384 -175 535 -50 119 -203 433 -214 439 -3 2 -24 -5
-46 -16z"/>
<path d="M58075 8662 c-22 -8 -41 -16 -43 -17 -1 -1 18 -37 43 -79 184 -311
318 -704 366 -1071 14 -104 8 -98 82 -78 22 6 22 29 -3 182 -49 296 -151 608
-286 870 -60 118 -101 192 -111 202 -4 4 -26 0 -48 -9z"/>
<path d="M52772 8370 c-145 -310 -241 -675 -268 -1012 l-7 -86 44 -9 44 -9 7
51 c3 27 11 97 18 155 31 284 124 609 251 879 27 57 48 105 47 105 -39 18 -79
36 -82 36 -2 0 -26 -50 -54 -110z"/>
<path d="M57510 8392 c-365 -215 -744 -497 -905 -676 -77 -84 -187 -251 -183
-275 7 -37 243 -114 450 -146 215 -34 654 -30 983 8 l100 12 -3 45 c-11 155
-67 403 -133 583 -46 124 -144 329 -205 425 l-40 62 -64 -38z"/>
<path d="M53317 8137 c-86 -192 -141 -356 -177 -530 -20 -96 -50 -325 -50
-383 l0 -32 118 -7 c155 -10 540 1 722 20 246 26 373 55 512 117 78 35 79 29
-7 144 -145 194 -406 406 -745 604 -106 62 -312 170 -324 170 -2 0 -24 -46
-49 -103z"/>
<path d="M55400 7675 c-258 -58 -449 -300 -450 -570 0 -81 22 -163 70 -260
168 -344 639 -420 910 -146 70 70 126 166 154 260 20 70 21 218 1 295 -50 192
-203 352 -394 412 -69 22 -214 26 -291 9z"/>
<path d="M56835 6896 c-150 -22 -335 -82 -335 -109 0 -20 95 -141 182 -232
190 -199 450 -390 813 -597 66 -37 126 -68 132 -68 15 0 124 215 176 346 20
50 53 149 72 220 36 129 81 362 72 371 -9 8 -231 41 -392 58 -222 22 -604 28
-720 11z"/>
<path d="M53794 6860 c-155 -11 -320 -34 -516 -72 -183 -35 -170 -19 -138
-173 55 -265 147 -502 290 -742 33 -57 65 -103 70 -103 16 0 297 193 415 285
271 211 463 394 552 525 51 76 93 151 93 168 0 14 -84 48 -175 71 -158 39
-382 55 -591 41z"/>
<path d="M58435 6673 c-57 -333 -152 -624 -290 -889 l-63 -122 41 -16 c22 -8
44 -13 49 -10 15 10 133 254 181 375 63 159 112 326 147 498 17 80 30 153 30
162 0 10 -11 19 -27 22 -16 3 -36 9 -45 12 -13 5 -18 -1 -23 -32z"/>
<path d="M52588 6606 c-20 -6 -39 -14 -43 -18 -16 -16 64 -328 136 -525 47
-129 167 -378 240 -500 l50 -82 44 21 45 22 -17 25 c-172 261 -326 640 -393
961 -11 57 -22 105 -23 106 -1 0 -19 -4 -39 -10z"/>
<path d="M56152 6273 c-4 -10 -7 -101 -7 -203 1 -206 19 -337 80 -575 52 -204
188 -602 215 -629 13 -13 297 129 420 211 141 93 286 212 395 323 l90 91 -107
104 c-190 182 -515 442 -673 537 -106 64 -223 116 -307 137 -99 25 -97 25
-106 4z"/>
<path d="M54835 6226 c-277 -88 -540 -271 -889 -618 l-179 -179 29 -30 c71
-76 260 -229 381 -309 208 -138 496 -277 514 -248 5 7 27 69 49 138 131 414
210 816 210 1071 0 160 -6 199 -29 198 -9 -1 -47 -11 -86 -23z"/>
<path d="M55493 5963 c-149 -198 -274 -465 -385 -823 -50 -161 -108 -394 -100
-401 10 -10 179 -37 317 -50 142 -14 406 -6 550 16 162 25 255 47 255 61 0 27
-114 365 -177 524 -89 226 -210 474 -288 589 -59 87 -108 151 -118 151 -1 0
-26 -30 -54 -67z"/>
<path d="M57665 5107 c-9 -22 -224 -219 -330 -302 -173 -134 -420 -284 -595
-361 -47 -20 -86 -37 -87 -39 -2 -1 5 -20 15 -43 20 -50 12 -51 178 28 283
134 563 330 787 549 l107 106 -34 40 c-30 34 -35 38 -41 22z"/>
<path d="M53417 5000 l-27 -39 97 -86 c206 -183 447 -348 669 -459 127 -63
270 -126 288 -126 15 0 50 71 39 80 -4 3 -39 19 -78 35 -188 76 -418 205 -595
334 -105 76 -283 225 -329 275 -14 14 -27 26 -30 26 -3 0 -18 -18 -34 -40z"/>
<path d="M56195 4259 c-61 -19 -314 -58 -455 -70 -228 -18 -553 0 -765 45 -73
15 -66 20 -78 -56 -4 -25 -1 -27 60 -38 230 -40 291 -44 573 -44 299 0 391 8
618 55 82 17 102 25 102 39 0 29 -12 80 -19 79 -3 0 -19 -5 -36 -10z"/>
<path d="M30015 26961 c-82 -37 -188 -89 -234 -115 -46 -27 -89 -49 -96 -50
-6 -1 -30 -17 -54 -36 -136 -110 -168 -139 -183 -170 -17 -34 -92 -78 -478
-282 -63 -33 -119 -64 -125 -68 -5 -4 -55 -31 -110 -60 -411 -217 -1573 -876
-2245 -1272 -2685 -1582 -5364 -3392 -7665 -5177 -266 -206 -790 -625 -995
-794 -138 -115 -170 -137 -198 -137 -18 0 -122 -24 -230 -54 -513 -140 -1314
-328 -2612 -612 -338 -75 -624 -137 -635 -140 -11 -2 -33 -7 -50 -10 -28 -5
-413 -88 -551 -119 -34 -8 -72 -16 -85 -19 -13 -3 -121 -25 -239 -51 -118 -25
-874 -185 -1680 -355 -3202 -675 -4159 -892 -4440 -1006 -300 -122 -755 -414
-1400 -900 -220 -165 -517 -395 -646 -501 -79 -64 -171 -139 -209 -168 -21
-16 -65 -53 -99 -81 -34 -29 -225 -188 -426 -355 -1079 -897 -2486 -2145
-2688 -2384 -210 -248 -326 -477 -363 -719 -18 -111 -6 -294 26 -400 43 -149
165 -358 259 -445 35 -33 33 -41 -11 -41 -49 0 -93 -40 -93 -86 0 -32 39 -225
150 -744 209 -978 429 -1896 547 -2290 139 -463 474 -801 950 -960 223 -74
272 -80 713 -92 603 -16 2846 -16 2938 0 163 28 246 107 300 284 24 77 47 264
38 311 -3 18 -6 109 -7 202 l-1 170 99 0 98 0 6 -265 c12 -478 62 -844 176
-1295 383 -1518 1381 -2830 2750 -3616 625 -358 1337 -604 2053 -708 299 -44
471 -55 840 -55 523 0 887 41 1360 155 2177 523 3859 2244 4334 4434 77 357
115 682 124 1070 l7 280 188 3 189 2 -3 -217 c-4 -236 0 -254 48 -270 45 -14
3291 -4 3263 10 -13 7 -31 23 -41 37 -18 24 -19 131 -22 3050 -1 1664 -6 3041
-9 3060 -4 19 -10 56 -13 82 -7 65 -15 119 -20 144 -3 12 -7 39 -10 60 -4 21
-22 104 -41 184 -147 614 -442 1234 -992 2089 -62 95 -110 176 -107 181 3 5 1
10 -4 12 -10 3 -379 559 -493 743 l-75 120 106 5 106 4 -114 6 -115 5 -29 50
c-61 101 -175 336 -206 419 -31 88 -75 248 -86 321 -14 88 -14 370 1 452 61
346 221 611 506 839 605 484 4984 4042 5074 4124 18 16 53 44 78 64 26 20 53
41 60 48 7 7 31 27 52 43 21 17 54 44 74 61 19 17 139 115 265 218 127 103
239 195 250 204 11 9 236 194 500 411 1382 1137 2134 1768 2246 1888 52 54
171 207 277 354 264 367 404 663 371 784 -5 18 -20 45 -34 61 -27 31 -34 89
-15 125 6 10 9 19 8 19 -2 -1 -70 -31 -153 -69z m-1295 -1156 c0 -10 -1375
-965 -2220 -1542 -1142 -778 -3162 -2125 -4375 -2916 -1261 -823 -3642 -2351
-3762 -2416 -65 -34 4 27 265 235 2669 2135 6197 4467 9907 6547 162 92 185
103 185 92z m-10957 -7430 c122 -48 232 -82 372 -115 77 -18 86 -20 155 -30
36 -6 99 -15 140 -22 129 -21 665 -16 820 7 14 2 45 6 70 9 25 4 79 13 120 21
41 8 86 17 100 19 14 2 52 11 86 20 33 8 69 17 80 19 46 9 250 68 297 86 26
10 27 10 27 -24 0 -53 38 -314 66 -455 78 -386 196 -725 339 -967 13 -24 24
-43 22 -43 -1 -1 -1831 -37 -4067 -80 -4018 -79 -4068 -80 -4300 -105 -1008
-110 -1949 -263 -2565 -417 -206 -51 -605 -172 -700 -213 -16 -7 -64 -25 -105
-40 -86 -31 -221 -82 -265 -100 -16 -7 -57 -23 -90 -36 -74 -28 -517 -211
-576 -237 -24 -11 -174 -77 -334 -147 -159 -70 -326 -145 -370 -165 -171 -80
-242 -113 -295 -137 -72 -33 -190 -89 -380 -181 -238 -114 -306 -145 -290
-129 45 43 280 229 452 358 829 619 1725 1077 2499 1278 85 23 273 65 419 95
349 72 1085 232 1865 406 347 77 644 143 660 146 17 3 129 28 250 56 121 28
236 54 255 58 19 5 58 13 85 19 28 6 64 14 80 17 17 3 127 28 245 55 118 28
229 52 245 55 17 3 57 12 90 20 33 8 71 17 85 20 14 3 66 14 115 26 50 11 129
28 176 38 48 11 135 31 194 45 59 15 117 28 129 31 11 2 33 6 48 10 15 3 29 5
30 4 2 -1 15 3 29 8 14 6 41 13 61 16 19 3 91 19 159 35 68 16 158 37 200 45
42 9 83 18 90 21 8 2 25 7 39 10 14 2 75 16 135 30 61 14 126 28 145 31 19 3
38 8 41 9 5 4 128 31 179 41 22 4 55 11 85 20 26 7 523 119 615 139 8 1 33 8
55 13 22 6 52 13 68 16 15 3 35 7 45 10 9 3 28 8 42 10 60 13 178 38 210 46
197 47 259 61 285 66 17 3 46 9 65 14 62 17 249 60 288 66 20 3 39 7 42 9 3 2
69 17 145 35 152 33 380 86 460 105 44 11 54 10 85 -5 19 -10 88 -39 153 -65z
m-11640 -4293 l38 -7 -82 -160 c-45 -88 -86 -170 -93 -182 -6 -13 -14 -23 -18
-23 -5 0 -8 -6 -8 -12 0 -17 -145 -259 -152 -253 -2 3 -5 -1 -5 -8 0 -16 -140
-227 -251 -377 -75 -101 -227 -296 -242 -310 -3 -3 -30 -34 -60 -70 -148 -175
-535 -564 -551 -554 -5 3 -8 1 -7 -4 6 -20 -338 -305 -355 -295 -6 3 -8 2 -4
-3 16 -27 -507 -370 -755 -495 -84 -42 -93 -45 -82 -27 4 7 3 8 -5 4 -6 -4 -9
-11 -6 -16 3 -4 -50 -30 -118 -58 -287 -118 -618 -208 -887 -241 -56 -7 -96
-6 -165 6 -203 34 -369 88 -373 121 -1 9 -3 26 -6 37 -2 11 3 32 11 47 7 15
13 31 13 35 -1 15 33 83 42 83 4 0 8 6 8 13 0 16 124 199 164 241 17 19 32 37
32 41 2 8 70 89 104 123 l25 26 -32 -20 c-18 -10 -85 -56 -148 -101 -63 -46
-115 -80 -115 -77 0 3 30 45 67 93 555 716 1925 1898 2578 2224 93 46 260 107
432 156 160 47 184 50 128 18 -69 -40 -212 -135 -218 -144 -4 -6 62 10 146 34
347 101 791 164 950 135z m7402 -3297 c1430 -168 2609 -1124 3072 -2490 131
-388 188 -745 188 -1185 0 -289 -9 -396 -51 -640 -147 -855 -597 -1638 -1264
-2199 -551 -463 -1177 -737 -1910 -836 -181 -25 -572 -30 -770 -11 -689 66
-1313 305 -1852 709 -604 451 -1052 1064 -1293 1767 -322 941 -257 1972 181
2855 363 730 940 1310 1663 1670 423 211 891 340 1364 375 162 12 511 4 672
-15z m-7610 -693 c-6 -5 -791 -77 -1745 -161 -954 -84 -1754 -155 -1777 -158
-43 -6 -43 -6 -43 -47 0 -22 32 -486 70 -1031 39 -544 69 -1000 68 -1013 -3
-21 -569 2375 -568 2406 0 9 407 12 2002 12 1101 0 1998 -4 1993 -8z"/>
<path d="M4830 13769 c-69 -50 -74 -56 -55 -56 8 0 13 2 10 5 -2 3 20 22 50
44 30 21 55 41 55 44 0 7 -2 5 -60 -37z"/>
<path d="M4605 13605 c-39 -32 -29 -32 15 0 19 14 30 25 24 25 -5 -1 -22 -12
-39 -25z"/>
<path d="M4539 13553 c-13 -16 -12 -17 4 -4 16 13 21 21 13 21 -2 0 -10 -8
-17 -17z"/>
<path d="M4459 13493 c-13 -16 -12 -17 4 -4 9 7 17 15 17 17 0 8 -8 3 -21 -13z"/>
<path d="M4319 13383 c-13 -17 -13 -17 6 -3 11 8 22 16 24 17 2 2 0 3 -6 3 -6
0 -17 -8 -24 -17z"/>
<path d="M4280 13355 c-7 -9 -8 -15 -2 -15 5 0 12 7 16 15 3 8 4 15 2 15 -2 0
-9 -7 -16 -15z"/>
<path d="M4229 13313 c-13 -16 -12 -17 4 -4 16 13 21 21 13 21 -2 0 -10 -8
-17 -17z"/>
<path d="M4179 13273 c-13 -16 -12 -17 4 -4 9 7 17 15 17 17 0 8 -8 3 -21 -13z"/>
<path d="M4124 13228 l-19 -23 25 20 c14 11 27 21 29 22 2 2 0 3 -6 3 -5 0
-18 -10 -29 -22z"/>
<path d="M4069 13183 c-13 -16 -12 -17 4 -4 9 7 17 15 17 17 0 8 -8 3 -21 -13z"/>
<path d="M4014 13138 l-19 -23 25 20 c14 11 27 21 29 22 2 2 0 3 -6 3 -5 0
-18 -10 -29 -22z"/>
<path d="M3955 13090 c-3 -6 1 -7 9 -4 18 7 21 14 7 14 -6 0 -13 -4 -16 -10z"/>
<path d="M3899 13043 c-13 -17 -13 -17 6 -3 11 8 22 16 24 17 2 2 0 3 -6 3 -6
0 -17 -8 -24 -17z"/>
<path d="M3816 12976 c-28 -25 -42 -43 -33 -43 9 0 15 3 14 6 -1 3 16 23 38
43 55 51 41 47 -19 -6z"/>
<path d="M3719 12893 c-13 -16 -12 -17 4 -4 9 7 17 15 17 17 0 8 -8 3 -21 -13z"/>
<path d="M3659 12843 c-13 -16 -12 -17 4 -4 9 7 17 15 17 17 0 8 -8 3 -21 -13z"/>
<path d="M3599 12793 c-13 -16 -12 -17 4 -4 16 13 21 21 13 21 -2 0 -10 -8
-17 -17z"/>
<path d="M3529 12733 c-13 -16 -12 -17 4 -4 16 13 21 21 13 21 -2 0 -10 -8
-17 -17z"/>
<path d="M3469 12683 c-13 -16 -12 -17 4 -4 16 13 21 21 13 21 -2 0 -10 -8
-17 -17z"/>
<path d="M3404 12628 l-19 -23 25 20 c14 11 27 21 29 22 2 2 0 3 -6 3 -5 0
-18 -10 -29 -22z"/>
<path d="M3334 12568 l-19 -23 23 19 c12 11 22 21 22 23 0 8 -8 2 -26 -19z"/>
<path d="M3279 12523 c-13 -16 -12 -17 4 -4 9 7 17 15 17 17 0 8 -8 3 -21 -13z"/>
<path d="M3214 12468 l-19 -23 23 19 c21 18 27 26 19 26 -2 0 -12 -10 -23 -22z"/>
<path d="M3144 12408 l-19 -23 23 19 c21 18 27 26 19 26 -2 0 -12 -10 -23 -22z"/>
<path d="M3079 12353 l-24 -28 28 24 c25 23 32 31 24 31 -2 0 -14 -12 -28 -27z"/>
<path d="M3024 12308 l-19 -23 23 19 c12 11 22 21 22 23 0 8 -8 2 -26 -19z"/>
<path d="M2964 12258 c-12 -14 -13 -18 -3 -10 9 6 20 8 24 4 5 -4 5 -2 2 5 -4
6 -1 14 5 16 8 3 8 6 2 6 -6 1 -19 -9 -30 -21z"/>
<path d="M2919 12223 c-13 -16 -12 -17 4 -4 9 7 17 15 17 17 0 8 -8 3 -21 -13z"/>
<path d="M2859 12173 c-13 -16 -12 -17 4 -4 16 13 21 21 13 21 -2 0 -10 -8
-17 -17z"/>
<path d="M2809 12133 c-13 -16 -12 -17 4 -4 9 7 17 15 17 17 0 8 -8 3 -21 -13z"/>
<path d="M2754 12088 l-19 -23 25 20 c14 11 27 21 29 22 2 2 0 3 -6 3 -5 0
-18 -10 -29 -22z"/>
<path d="M2709 12053 c-13 -16 -12 -17 4 -4 9 7 17 15 17 17 0 8 -8 3 -21 -13z"/>
<path d="M2659 12013 c-13 -16 -12 -17 4 -4 16 13 21 21 13 21 -2 0 -10 -8
-17 -17z"/>
<path d="M2609 11973 c-13 -17 -13 -17 6 -3 11 8 22 16 24 17 2 2 0 3 -6 3 -6
0 -17 -8 -24 -17z"/>
<path d="M2545 11922 c-34 -30 -25 -27 19 6 16 12 25 22 20 22 -5 0 -23 -13
-39 -28z"/>
<path d="M2475 11870 c-3 -6 1 -7 9 -4 18 7 21 14 7 14 -6 0 -13 -4 -16 -10z"/>
<path d="M2429 11833 c-13 -16 -12 -17 4 -4 16 13 21 21 13 21 -2 0 -10 -8
-17 -17z"/>
<path d="M2389 11803 c-13 -16 -12 -17 4 -4 16 13 21 21 13 21 -2 0 -10 -8
-17 -17z"/>
<path d="M2349 11773 c-13 -16 -12 -17 4 -4 16 13 21 21 13 21 -2 0 -10 -8
-17 -17z"/>
<path d="M12860 10119 c-130 -11 -377 -52 -490 -82 -80 -21 -85 -24 -82 -47 8
-72 -3 -69 139 -34 71 17 149 34 173 37 25 4 70 11 102 16 194 33 552 36 791
5 l47 -6 0 45 c0 45 -1 45 -37 51 -150 24 -443 31 -643 15z"/>
<path d="M14301 9846 c-12 -18 -21 -38 -21 -43 0 -5 25 -20 55 -32 210 -87
549 -308 737 -480 l56 -51 31 39 31 39 -85 73 c-117 100 -260 205 -380 280
-89 56 -380 209 -397 209 -3 0 -16 -15 -27 -34z"/>
<path d="M11615 9734 c-126 -71 -292 -184 -415 -283 -112 -89 -376 -350 -416
-410 l-27 -42 31 -32 32 -32 42 50 c95 115 348 354 478 452 124 92 289 199
383 248 20 11 37 22 37 25 0 3 -10 22 -23 42 l-22 38 -100 -56z"/>
<path d="M12839 9525 c-116 -12 -277 -43 -375 -71 l-51 -15 25 -82 c99 -327
309 -800 449 -1012 55 -84 166 -215 182 -215 13 0 101 128 146 212 122 230
209 538 264 933 36 259 36 232 4 239 -133 27 -448 32 -644 11z"/>
<path d="M13984 9265 c-152 -327 -311 -807 -343 -1038 -15 -104 -14 -267 0
-267 6 0 51 13 100 30 167 56 333 152 524 304 100 80 434 407 512 501 49 60
53 52 -87 171 -158 133 -352 259 -525 339 -145 68 -129 71 -181 -40z"/>
<path d="M11940 9239 c-178 -94 -365 -234 -533 -398 -81 -78 -223 -239 -216
-244 2 -2 63 -46 134 -99 417 -306 867 -551 1074 -584 l44 -7 -5 144 c-10 289
-116 625 -334 1060 -46 93 -85 169 -87 169 -1 -1 -36 -19 -77 -41z"/>
<path d="M15665 8663 c-22 -9 -41 -17 -43 -18 -1 -1 21 -42 49 -90 180 -314
306 -678 355 -1028 l17 -127 26 6 c73 16 71 10 41 191 -58 341 -179 688 -344
981 -31 56 -58 102 -59 101 -1 0 -20 -7 -42 -16z"/>
<path d="M10363 8373 c-131 -280 -219 -589 -258 -903 -8 -68 -15 -141 -15
-162 0 -35 2 -37 43 -45 l42 -9 6 56 c4 30 12 100 18 155 32 284 127 614 251
874 28 57 49 105 48 105 -27 13 -79 36 -82 36 -2 0 -26 -48 -53 -107z"/>
<path d="M15034 8352 c-400 -242 -746 -513 -895 -698 -54 -68 -129 -191 -129
-212 0 -18 105 -65 213 -96 294 -85 705 -99 1213 -43 l108 12 -3 50 c-4 77
-47 298 -80 417 -52 184 -166 442 -264 596 l-33 53 -130 -79z"/>
<path d="M10902 8128 c-127 -283 -196 -548 -218 -844 l-7 -92 119 -7 c66 -4
220 -5 344 -2 450 12 742 60 923 153 l38 20 -43 64 c-58 86 -230 264 -350 361
-166 133 -435 302 -665 418 -46 22 -84 41 -87 41 -2 0 -26 -51 -54 -112z"/>
<path d="M12991 7675 c-250 -57 -433 -273 -448 -530 -7 -105 9 -183 56 -280
52 -108 108 -175 197 -234 229 -153 531 -125 723 68 114 114 171 251 171 409
0 314 -236 564 -545 578 -57 2 -113 -2 -154 -11z"/>
<path d="M14443 6899 c-155 -18 -377 -94 -356 -121 192 -256 366 -416 676
-622 153 -102 432 -266 453 -266 17 0 132 230 187 375 25 66 57 166 71 223 27
104 69 332 63 338 -14 15 -371 60 -582 74 -175 11 -409 11 -512 -1z"/>
<path d="M11384 6860 c-66 -5 -174 -16 -240 -25 -115 -16 -422 -73 -435 -81
-16 -10 63 -339 117 -484 39 -103 46 -118 110 -245 67 -134 141 -255 155 -255
12 0 240 154 357 242 229 172 463 381 553 495 56 70 149 219 149 238 0 27
-187 85 -335 104 -123 15 -298 20 -431 11z"/>
<path d="M16024 6673 c-57 -327 -141 -591 -275 -859 l-76 -152 40 -16 c22 -8
44 -13 49 -10 17 11 131 250 184 387 60 154 113 332 142 482 36 182 36 174 10
184 -66 25 -66 25 -74 -16z"/>
<path d="M10178 6606 c-20 -6 -39 -14 -43 -18 -9 -9 28 -181 70 -330 63 -217
176 -476 295 -676 l61 -102 39 20 c22 11 40 23 40 27 0 3 -26 52 -59 107 -163
280 -277 572 -341 876 -13 58 -23 105 -24 106 0 0 -18 -4 -38 -10z"/>
<path d="M13742 6273 c-4 -10 -7 -101 -7 -203 0 -206 14 -312 70 -539 53 -214
196 -635 225 -665 13 -13 294 128 420 211 140 93 285 211 395 323 l90 92 -110
105 c-202 194 -492 425 -670 534 -107 66 -247 127 -330 145 -77 17 -74 17 -83
-3z"/>
<path d="M12485 6243 c-32 -6 -167 -53 -205 -70 -71 -32 -217 -119 -299 -176
-143 -102 -259 -203 -446 -390 l-180 -179 90 -85 c161 -152 377 -304 572 -401
75 -38 245 -112 257 -112 3 0 28 70 56 157 83 257 154 562 194 834 16 107 22
339 10 398 -6 31 -10 33 -49 24z"/>
<path d="M13083 5962 c-184 -244 -339 -611 -459 -1085 -19 -77 -34 -141 -32
-142 2 -1 50 -10 108 -19 323 -51 576 -48 883 10 l138 26 -6 32 c-4 17 -37
123 -75 236 -140 423 -356 867 -477 982 l-29 28 -51 -68z"/>
<path d="M15175 5028 c-226 -227 -550 -451 -838 -579 -50 -23 -93 -43 -95 -44
-7 -6 31 -85 40 -85 20 0 285 135 402 204 168 101 382 264 524 402 l122 119
-33 36 -32 37 -90 -90z"/>
<path d="M11007 5000 l-27 -39 102 -91 c249 -222 531 -403 831 -533 59 -26
113 -47 120 -47 16 0 51 70 40 80 -4 3 -39 19 -78 35 -307 125 -643 341 -881
567 -39 37 -73 68 -75 68 -2 0 -16 -18 -32 -40z"/>
<path d="M13760 4254 c-341 -86 -841 -94 -1195 -20 l-65 14 -5 -24 c-3 -13 -7
-35 -10 -49 -3 -14 -2 -25 2 -25 5 0 58 -9 119 -19 331 -57 795 -52 1094 13
158 34 147 27 134 95 -4 17 -9 31 -13 30 -3 -1 -31 -7 -61 -15z"/>
<path d="M40275 26654 c-3652 -70 -7065 -242 -8505 -430 -572 -74 -710 -115
-1015 -299 -210 -127 -626 -412 -882 -605 -40 -30 -118 -89 -174 -130 -57 -41
-107 -80 -113 -85 -6 -6 -69 -55 -141 -110 -1263 -966 -3082 -2492 -4435
-3724 -305 -277 -782 -723 -778 -727 3 -3 21 1 123 27 188 49 322 61 373 35
96 -50 137 -181 163 -526 16 -202 14 -1667 -2 -1978 -6 -122 -10 -225 -7 -227
6 -7 293 -23 648 -37 401 -15 14548 -24 14855 -9 316 16 498 53 684 142 216
102 338 224 450 446 107 215 150 426 235 1153 109 926 443 4028 627 5815 39
375 45 674 16 788 -59 235 -223 370 -522 431 -212 43 -290 48 -880 50 -313 2
-637 1 -720 0z"/>
<path d="M44828 26100 c-119 -15 -225 -95 -287 -218 -70 -139 -103 -317 -121
-652 -29 -560 -96 -1353 -320 -3795 -204 -2217 -203 -2211 -204 -2510 -1 -285
5 -326 63 -450 140 -299 505 -457 1166 -505 275 -20 643 -14 2440 40 3514 105
6109 216 6935 296 601 58 934 179 1038 379 23 44 27 62 27 150 0 99 -1 102
-46 195 -25 52 -75 133 -110 180 -77 103 -311 340 -469 474 -458 390 -1666
1307 -2750 2087 -1909 1374 -3536 2450 -4890 3231 -277 160 -338 194 -485 273
-38 21 -126 68 -195 105 -281 152 -543 277 -1070 513 -423 189 -555 227 -722
207z"/>
<path d="M52408 16533 c50 -2 134 -2 185 0 50 1 9 3 -93 3 -102 0 -143 -2 -92
-3z"/>
<path d="M52234 16484 c-18 -14 -18 -15 4 -4 12 6 22 13 22 15 0 8 -5 6 -26
-11z"/>
<path d="M52164 16444 c-18 -14 -18 -15 4 -4 12 6 22 13 22 15 0 8 -5 6 -26
-11z"/>
<path d="M52044 16374 c-18 -14 -18 -15 4 -4 12 6 22 13 22 15 0 8 -5 6 -26
-11z"/>
<path d="M38310 16268 c-192 -20 -344 -75 -506 -184 -113 -76 -159 -127 -174
-196 -41 -181 149 -461 446 -657 112 -74 201 -116 329 -153 l80 -23 1235 -3
c1279 -3 1426 0 1605 37 183 38 231 66 405 230 343 322 417 582 218 766 -99
92 -246 150 -459 180 -88 12 -326 14 -1599 13 -822 0 -1533 -5 -1580 -10z"/>
<path d="M51864 16264 c-18 -14 -18 -15 4 -4 12 6 22 13 22 15 0 8 -5 6 -26
-11z"/>
<path d="M51814 16234 c-18 -14 -18 -15 4 -4 12 6 22 13 22 15 0 8 -5 6 -26
-11z"/>
<path d="M51456 16002 c-3 -5 1 -9 9 -9 8 0 12 4 9 9 -3 4 -7 8 -9 8 -2 0 -6
-4 -9 -8z"/>
<path d="M51389 15953 c-13 -16 -12 -17 4 -4 9 7 17 15 17 17 0 8 -8 3 -21
-13z"/>
<path d="M51215 15830 c-3 -5 -1 -10 4 -10 6 0 11 5 11 10 0 6 -2 10 -4 10 -3
0 -8 -4 -11 -10z"/>
<path d="M51273 15823 c15 -2 37 -2 50 0 12 2 0 4 -28 4 -27 0 -38 -2 -22 -4z"/>
<path d="M21408 15643 c12 -2 30 -2 40 0 9 3 -1 5 -23 4 -22 0 -30 -2 -17 -4z"/>
<path d="M21538 15633 c12 -2 30 -2 40 0 9 3 -1 5 -23 4 -22 0 -30 -2 -17 -4z"/>
<path d="M32110 13530 c-350 -38 -629 -151 -860 -346 -343 -291 -506 -730
-487 -1319 15 -485 150 -830 437 -1115 211 -210 479 -329 860 -381 143 -20
519 -17 656 4 414 65 724 241 942 535 140 188 223 407 269 702 27 178 24 553
-6 722 -53 306 -151 526 -317 717 -217 251 -496 398 -879 462 -139 23 -477 34
-615 19z m376 -725 c123 -23 213 -72 304 -163 126 -126 179 -264 202 -530 13
-148 0 -391 -27 -525 -34 -161 -105 -299 -193 -378 -167 -149 -492 -184 -707
-78 -222 109 -335 342 -351 724 -11 256 25 492 98 643 44 93 169 217 258 260
124 58 270 75 416 47z"/>
<path d="M40255 13534 c-468 -49 -789 -200 -1024 -480 -93 -112 -158 -220
-210 -350 -183 -456 -170 -1140 30 -1561 88 -184 268 -410 417 -523 134 -101
334 -186 527 -224 162 -32 265 -40 485 -40 340 0 523 34 735 138 267 132 459
344 589 653 23 56 88 265 83 269 -1 1 -184 57 -406 124 -222 67 -409 124 -415
126 -7 3 -18 -23 -28 -61 -62 -235 -182 -413 -324 -480 -110 -52 -283 -69
-417 -40 -183 39 -306 145 -373 322 -51 133 -65 230 -71 476 -6 252 3 356 44
497 34 119 77 194 158 276 289 294 791 196 932 -181 19 -50 33 -75 44 -75 9 0
197 41 418 90 222 50 405 90 407 90 8 0 -50 149 -91 235 -65 134 -138 238
-245 349 -190 196 -407 301 -725 352 -96 15 -454 27 -540 18z"/>
<path d="M27770 11945 l0 -1545 475 0 475 0 0 575 0 575 343 2 c188 0 347 2
352 3 6 1 44 5 85 9 202 21 440 112 567 215 130 107 231 272 279 457 20 78 27
132 31 254 11 334 -60 554 -237 730 -121 121 -223 177 -415 225 -158 40 -275
45 -1137 45 l-818 0 0 -1545z m1380 904 c188 -29 300 -152 300 -327 0 -85 -12
-128 -53 -189 -38 -57 -106 -105 -180 -127 -63 -19 -289 -38 -407 -34 l-85 3
-3 343 -2 342 182 0 c101 0 212 -5 248 -11z"/>
<path d="M34460 11945 l0 -1545 1220 0 1220 0 0 385 0 385 -745 0 -745 0 0
1160 0 1160 -475 0 -475 0 0 -1545z"/>
<path d="M37370 11945 l0 -1545 475 0 475 0 0 1545 0 1545 -475 0 -475 0 0
-1545z"/>
<path d="M42350 11945 l0 -1545 1295 0 1295 0 0 355 0 355 -820 0 -820 0 0
300 0 300 740 0 740 0 0 315 0 315 -737 2 -738 3 -3 243 -2 242 800 0 800 0 0
330 0 330 -1275 0 -1275 0 0 -1545z"/>
<path d="M22683 8593 c15 -2 37 -2 50 0 12 2 0 4 -28 4 -27 0 -38 -2 -22 -4z"/>
<path d="M47763 8593 c15 -2 39 -2 55 0 15 2 2 4 -28 4 -30 0 -43 -2 -27 -4z"/>
<path d="M45563 7013 c361 -2 953 -2 1315 0 361 1 65 2 -658 2 -723 0 -1019
-1 -657 -2z"/>
<path d="M42768 7003 c391 -2 1033 -2 1425 0 391 1 71 2 -713 2 -784 0 -1104
-1 -712 -2z"/>
<path d="M37655 6990 l-1490 -5 1395 -1 c767 -1 1771 2 2230 5 l835 7 -740 0
c-407 -1 -1410 -3 -2230 -6z"/>
<path d="M40983 6993 c196 -2 518 -2 715 0 196 1 35 2 -358 2 -393 0 -554 -1
-357 -2z"/>
<path d="M33893 6973 c416 -2 1098 -2 1515 0 416 1 75 2 -758 2 -833 0 -1174
-1 -757 -2z"/>
<path d="M28480 6960 l-1575 -5 1380 -1 c759 -1 2161 2 3115 5 l1735 7 -1540
0 c-847 -1 -2249 -3 -3115 -6z"/>
<path d="M23260 6940 c-245 -3 120 -4 810 -1 690 2 1257 5 1259 7 6 5 -1521 1
-2069 -6z"/>
<path d="M25728 6943 c215 -2 569 -2 785 0 215 1 39 2 -393 2 -432 0 -608 -1
-392 -2z"/>
<path d="M22768 6933 c6 -2 18 -2 25 0 6 3 1 5 -13 5 -14 0 -19 -2 -12 -5z"/>
<path d="M47133 6833 c15 -2 37 -2 50 0 12 2 0 4 -28 4 -27 0 -38 -2 -22 -4z"/>
<path d="M44308 6823 c12 -2 32 -2 45 0 12 2 2 4 -23 4 -25 0 -35 -2 -22 -4z"/>
<path d="M41423 6813 c15 -2 37 -2 50 0 12 2 0 4 -28 4 -27 0 -38 -2 -22 -4z"/>
<path d="M38478 6803 c12 -2 32 -2 45 0 12 2 2 4 -23 4 -25 0 -35 -2 -22 -4z"/>
<path d="M35483 6793 c15 -2 37 -2 50 0 12 2 0 4 -28 4 -27 0 -38 -2 -22 -4z"/>
<path d="M32428 6783 c12 -2 32 -2 45 0 12 2 2 4 -23 4 -25 0 -35 -2 -22 -4z"/>
<path d="M29338 6773 c12 -2 30 -2 40 0 9 3 -1 5 -23 4 -22 0 -30 -2 -17 -4z"/>
<path d="M26188 6763 c6 -2 18 -2 25 0 6 3 1 5 -13 5 -14 0 -19 -2 -12 -5z"/>
</g>
</svg>
